<?xml version="1.0" encoding="utf-8" standalone="no"?>
<!DOCTYPE svg PUBLIC "-//W3C//DTD SVG 1.1//EN"
  "http://www.w3.org/Graphics/SVG/1.1/DTD/svg11.dtd">
<svg xmlns:xlink="http://www.w3.org/1999/xlink" width="360pt" height="216pt" viewBox="0 0 360 216" xmlns="http://www.w3.org/2000/svg" version="1.1">
 <metadata>
  <rdf:RDF xmlns:dc="http://purl.org/dc/elements/1.1/" xmlns:cc="http://creativecommons.org/ns#" xmlns:rdf="http://www.w3.org/1999/02/22-rdf-syntax-ns#">
   <cc:Work>
    <dc:type rdf:resource="http://purl.org/dc/dcmitype/StillImage"/>
    <dc:date>2025-03-07T16:30:26.590102</dc:date>
    <dc:format>image/svg+xml</dc:format>
    <dc:creator>
     <cc:Agent>
      <dc:title>Matplotlib v3.10.1, https://matplotlib.org/</dc:title>
     </cc:Agent>
    </dc:creator>
   </cc:Work>
  </rdf:RDF>
 </metadata>
 <defs>
  <style type="text/css">*{stroke-linejoin: round; stroke-linecap: butt}</style>
 </defs>
 <g id="figure_1">
  <g id="patch_1">
   <path d="M 0 216 
L 360 216 
L 360 0 
L 0 0 
L 0 216 
z
" style="fill: none"/>
  </g>
  <g id="axes_1">
   <g id="patch_2">
    <path d="M 45 178.2 
L 342 178.2 
L 342 10.8 
L 45 10.8 
L 45 178.2 
z
" style="fill: none"/>
   </g>
   <g id="PathCollection_1">
    <defs>
     <path id="m170213a280" d="M 0 2.5 
C 0.663008 2.5 1.29895 2.236584 1.767767 1.767767 
C 2.236584 1.29895 2.5 0.663008 2.5 0 
C 2.5 -0.663008 2.236584 -1.29895 1.767767 -1.767767 
C 1.29895 -2.236584 0.663008 -2.5 0 -2.5 
C -0.663008 -2.5 -1.29895 -2.236584 -1.767767 -1.767767 
C -2.236584 -1.29895 -2.5 -0.663008 -2.5 0 
C -2.5 0.663008 -2.236584 1.29895 -1.767767 1.767767 
C -1.29895 2.236584 -0.663008 2.5 0 2.5 
z
" style="stroke: #ffffff; stroke-width: 0.4"/>
    </defs>
    <g clip-path="url(#p0b9127b421)">
     <use xlink:href="#m170213a280" x="58.5" y="109.118413" style="fill: #1f77b4; stroke: #ffffff; stroke-width: 0.4"/>
     <use xlink:href="#m170213a280" x="61.227273" y="146.451641" style="fill: #1f77b4; stroke: #ffffff; stroke-width: 0.4"/>
     <use xlink:href="#m170213a280" x="63.954545" y="118.78214" style="fill: #1f77b4; stroke: #ffffff; stroke-width: 0.4"/>
     <use xlink:href="#m170213a280" x="66.681818" y="100.092075" style="fill: #1f77b4; stroke: #ffffff; stroke-width: 0.4"/>
     <use xlink:href="#m170213a280" x="69.409091" y="109.688221" style="fill: #1f77b4; stroke: #ffffff; stroke-width: 0.4"/>
     <use xlink:href="#m170213a280" x="72.136364" y="100.606662" style="fill: #1f77b4; stroke: #ffffff; stroke-width: 0.4"/>
     <use xlink:href="#m170213a280" x="74.863636" y="116.922103" style="fill: #1f77b4; stroke: #ffffff; stroke-width: 0.4"/>
     <use xlink:href="#m170213a280" x="77.590909" y="116.430023" style="fill: #1f77b4; stroke: #ffffff; stroke-width: 0.4"/>
     <use xlink:href="#m170213a280" x="80.318182" y="109.646095" style="fill: #1f77b4; stroke: #ffffff; stroke-width: 0.4"/>
     <use xlink:href="#m170213a280" x="83.045455" y="105.579263" style="fill: #1f77b4; stroke: #ffffff; stroke-width: 0.4"/>
     <use xlink:href="#m170213a280" x="85.772727" y="109.059505" style="fill: #1f77b4; stroke: #ffffff; stroke-width: 0.4"/>
     <use xlink:href="#m170213a280" x="88.5" y="110.267778" style="fill: #1f77b4; stroke: #ffffff; stroke-width: 0.4"/>
     <use xlink:href="#m170213a280" x="91.227273" y="124.164792" style="fill: #1f77b4; stroke: #ffffff; stroke-width: 0.4"/>
     <use xlink:href="#m170213a280" x="93.954545" y="105.257821" style="fill: #1f77b4; stroke: #ffffff; stroke-width: 0.4"/>
     <use xlink:href="#m170213a280" x="96.681818" y="109.677615" style="fill: #1f77b4; stroke: #ffffff; stroke-width: 0.4"/>
     <use xlink:href="#m170213a280" x="99.409091" y="91.049323" style="fill: #1f77b4; stroke: #ffffff; stroke-width: 0.4"/>
     <use xlink:href="#m170213a280" x="102.136364" y="89.425001" style="fill: #1f77b4; stroke: #ffffff; stroke-width: 0.4"/>
     <use xlink:href="#m170213a280" x="104.863636" y="107.957265" style="fill: #1f77b4; stroke: #ffffff; stroke-width: 0.4"/>
     <use xlink:href="#m170213a280" x="107.590909" y="118.297421" style="fill: #1f77b4; stroke: #ffffff; stroke-width: 0.4"/>
     <use xlink:href="#m170213a280" x="110.318182" y="123.189446" style="fill: #1f77b4; stroke: #ffffff; stroke-width: 0.4"/>
     <use xlink:href="#m170213a280" x="113.045455" y="102.83144" style="fill: #1f77b4; stroke: #ffffff; stroke-width: 0.4"/>
     <use xlink:href="#m170213a280" x="115.772727" y="109.273717" style="fill: #1f77b4; stroke: #ffffff; stroke-width: 0.4"/>
     <use xlink:href="#m170213a280" x="118.5" y="117.285343" style="fill: #1f77b4; stroke: #ffffff; stroke-width: 0.4"/>
     <use xlink:href="#m170213a280" x="121.227273" y="109.588803" style="fill: #1f77b4; stroke: #ffffff; stroke-width: 0.4"/>
     <use xlink:href="#m170213a280" x="123.954545" y="122.529386" style="fill: #1f77b4; stroke: #ffffff; stroke-width: 0.4"/>
     <use xlink:href="#m170213a280" x="126.681818" y="96.221321" style="fill: #1f77b4; stroke: #ffffff; stroke-width: 0.4"/>
     <use xlink:href="#m170213a280" x="129.409091" y="118.937028" style="fill: #1f77b4; stroke: #ffffff; stroke-width: 0.4"/>
     <use xlink:href="#m170213a280" x="132.136364" y="85.022701" style="fill: #1f77b4; stroke: #ffffff; stroke-width: 0.4"/>
     <use xlink:href="#m170213a280" x="134.863636" y="101.410557" style="fill: #1f77b4; stroke: #ffffff; stroke-width: 0.4"/>
     <use xlink:href="#m170213a280" x="137.590909" y="97.277703" style="fill: #1f77b4; stroke: #ffffff; stroke-width: 0.4"/>
     <use xlink:href="#m170213a280" x="140.318182" y="132.001854" style="fill: #1f77b4; stroke: #ffffff; stroke-width: 0.4"/>
     <use xlink:href="#m170213a280" x="143.045455" y="105.621959" style="fill: #1f77b4; stroke: #ffffff; stroke-width: 0.4"/>
     <use xlink:href="#m170213a280" x="145.772727" y="93.417824" style="fill: #1f77b4; stroke: #ffffff; stroke-width: 0.4"/>
     <use xlink:href="#m170213a280" x="148.5" y="129.054106" style="fill: #1f77b4; stroke: #ffffff; stroke-width: 0.4"/>
     <use xlink:href="#m170213a280" x="151.227273" y="114.362635" style="fill: #1f77b4; stroke: #ffffff; stroke-width: 0.4"/>
     <use xlink:href="#m170213a280" x="153.954545" y="107.813981" style="fill: #1f77b4; stroke: #ffffff; stroke-width: 0.4"/>
     <use xlink:href="#m170213a280" x="156.681818" y="138.124898" style="fill: #1f77b4; stroke: #ffffff; stroke-width: 0.4"/>
     <use xlink:href="#m170213a280" x="159.409091" y="101.31127" style="fill: #1f77b4; stroke: #ffffff; stroke-width: 0.4"/>
     <use xlink:href="#m170213a280" x="162.136364" y="89.41722" style="fill: #1f77b4; stroke: #ffffff; stroke-width: 0.4"/>
     <use xlink:href="#m170213a280" x="164.863636" y="126.922161" style="fill: #1f77b4; stroke: #ffffff; stroke-width: 0.4"/>
     <use xlink:href="#m170213a280" x="167.590909" y="99.887721" style="fill: #1f77b4; stroke: #ffffff; stroke-width: 0.4"/>
     <use xlink:href="#m170213a280" x="170.318182" y="137.056754" style="fill: #1f77b4; stroke: #ffffff; stroke-width: 0.4"/>
     <use xlink:href="#m170213a280" x="173.045455" y="108.26789" style="fill: #1f77b4; stroke: #ffffff; stroke-width: 0.4"/>
     <use xlink:href="#m170213a280" x="175.772727" y="144.077973" style="fill: #1f77b4; stroke: #ffffff; stroke-width: 0.4"/>
     <use xlink:href="#m170213a280" x="178.5" y="81.317006" style="fill: #1f77b4; stroke: #ffffff; stroke-width: 0.4"/>
     <use xlink:href="#m170213a280" x="181.227273" y="97.453775" style="fill: #1f77b4; stroke: #ffffff; stroke-width: 0.4"/>
     <use xlink:href="#m170213a280" x="183.954545" y="107.322529" style="fill: #1f77b4; stroke: #ffffff; stroke-width: 0.4"/>
     <use xlink:href="#m170213a280" x="186.681818" y="124.763826" style="fill: #1f77b4; stroke: #ffffff; stroke-width: 0.4"/>
     <use xlink:href="#m170213a280" x="189.409091" y="76.357926" style="fill: #1f77b4; stroke: #ffffff; stroke-width: 0.4"/>
     <use xlink:href="#m170213a280" x="192.136364" y="59.513273" style="fill: #1f77b4; stroke: #ffffff; stroke-width: 0.4"/>
     <use xlink:href="#m170213a280" x="194.863636" y="150.565956" style="fill: #1f77b4; stroke: #ffffff; stroke-width: 0.4"/>
     <use xlink:href="#m170213a280" x="197.590909" y="76.168025" style="fill: #1f77b4; stroke: #ffffff; stroke-width: 0.4"/>
     <use xlink:href="#m170213a280" x="200.318182" y="66.315408" style="fill: #1f77b4; stroke: #ffffff; stroke-width: 0.4"/>
     <use xlink:href="#m170213a280" x="203.045455" y="97.374104" style="fill: #1f77b4; stroke: #ffffff; stroke-width: 0.4"/>
     <use xlink:href="#m170213a280" x="205.772727" y="134.931812" style="fill: #1f77b4; stroke: #ffffff; stroke-width: 0.4"/>
     <use xlink:href="#m170213a280" x="208.5" y="83.95198" style="fill: #1f77b4; stroke: #ffffff; stroke-width: 0.4"/>
     <use xlink:href="#m170213a280" x="211.227273" y="109.646853" style="fill: #1f77b4; stroke: #ffffff; stroke-width: 0.4"/>
     <use xlink:href="#m170213a280" x="213.954545" y="120.112673" style="fill: #1f77b4; stroke: #ffffff; stroke-width: 0.4"/>
     <use xlink:href="#m170213a280" x="216.681818" y="135.836143" style="fill: #1f77b4; stroke: #ffffff; stroke-width: 0.4"/>
     <use xlink:href="#m170213a280" x="219.409091" y="90.692198" style="fill: #1f77b4; stroke: #ffffff; stroke-width: 0.4"/>
     <use xlink:href="#m170213a280" x="222.136364" y="84.256932" style="fill: #1f77b4; stroke: #ffffff; stroke-width: 0.4"/>
     <use xlink:href="#m170213a280" x="224.863636" y="120.362125" style="fill: #1f77b4; stroke: #ffffff; stroke-width: 0.4"/>
     <use xlink:href="#m170213a280" x="227.590909" y="90.719842" style="fill: #1f77b4; stroke: #ffffff; stroke-width: 0.4"/>
     <use xlink:href="#m170213a280" x="230.318182" y="133.790832" style="fill: #1f77b4; stroke: #ffffff; stroke-width: 0.4"/>
     <use xlink:href="#m170213a280" x="233.045455" y="82.868256" style="fill: #1f77b4; stroke: #ffffff; stroke-width: 0.4"/>
     <use xlink:href="#m170213a280" x="235.772727" y="102.471513" style="fill: #1f77b4; stroke: #ffffff; stroke-width: 0.4"/>
     <use xlink:href="#m170213a280" x="238.5" y="108.481151" style="fill: #1f77b4; stroke: #ffffff; stroke-width: 0.4"/>
     <use xlink:href="#m170213a280" x="241.227273" y="106.089215" style="fill: #1f77b4; stroke: #ffffff; stroke-width: 0.4"/>
     <use xlink:href="#m170213a280" x="243.954545" y="79.913203" style="fill: #1f77b4; stroke: #ffffff; stroke-width: 0.4"/>
     <use xlink:href="#m170213a280" x="246.681818" y="82.80951" style="fill: #1f77b4; stroke: #ffffff; stroke-width: 0.4"/>
     <use xlink:href="#m170213a280" x="249.409091" y="88.525013" style="fill: #1f77b4; stroke: #ffffff; stroke-width: 0.4"/>
     <use xlink:href="#m170213a280" x="252.136364" y="98.975008" style="fill: #1f77b4; stroke: #ffffff; stroke-width: 0.4"/>
     <use xlink:href="#m170213a280" x="254.863636" y="100.436712" style="fill: #1f77b4; stroke: #ffffff; stroke-width: 0.4"/>
     <use xlink:href="#m170213a280" x="257.590909" y="85.332098" style="fill: #1f77b4; stroke: #ffffff; stroke-width: 0.4"/>
     <use xlink:href="#m170213a280" x="260.318182" y="95.793241" style="fill: #1f77b4; stroke: #ffffff; stroke-width: 0.4"/>
     <use xlink:href="#m170213a280" x="263.045455" y="83.01912" style="fill: #1f77b4; stroke: #ffffff; stroke-width: 0.4"/>
     <use xlink:href="#m170213a280" x="265.772727" y="110.647005" style="fill: #1f77b4; stroke: #ffffff; stroke-width: 0.4"/>
     <use xlink:href="#m170213a280" x="268.5" y="170.590909" style="fill: #1f77b4; stroke: #ffffff; stroke-width: 0.4"/>
     <use xlink:href="#m170213a280" x="271.227273" y="72.081305" style="fill: #1f77b4; stroke: #ffffff; stroke-width: 0.4"/>
     <use xlink:href="#m170213a280" x="273.954545" y="38.932794" style="fill: #1f77b4; stroke: #ffffff; stroke-width: 0.4"/>
     <use xlink:href="#m170213a280" x="276.681818" y="88.60136" style="fill: #1f77b4; stroke: #ffffff; stroke-width: 0.4"/>
     <use xlink:href="#m170213a280" x="279.409091" y="104.023661" style="fill: #1f77b4; stroke: #ffffff; stroke-width: 0.4"/>
     <use xlink:href="#m170213a280" x="282.136364" y="104.934004" style="fill: #1f77b4; stroke: #ffffff; stroke-width: 0.4"/>
     <use xlink:href="#m170213a280" x="284.863636" y="104.287024" style="fill: #1f77b4; stroke: #ffffff; stroke-width: 0.4"/>
     <use xlink:href="#m170213a280" x="287.590909" y="100.135032" style="fill: #1f77b4; stroke: #ffffff; stroke-width: 0.4"/>
     <use xlink:href="#m170213a280" x="290.318182" y="133.641179" style="fill: #1f77b4; stroke: #ffffff; stroke-width: 0.4"/>
     <use xlink:href="#m170213a280" x="293.045455" y="115.688414" style="fill: #1f77b4; stroke: #ffffff; stroke-width: 0.4"/>
     <use xlink:href="#m170213a280" x="295.772727" y="129.946776" style="fill: #1f77b4; stroke: #ffffff; stroke-width: 0.4"/>
     <use xlink:href="#m170213a280" x="298.5" y="92.532535" style="fill: #1f77b4; stroke: #ffffff; stroke-width: 0.4"/>
     <use xlink:href="#m170213a280" x="301.227273" y="108.799856" style="fill: #1f77b4; stroke: #ffffff; stroke-width: 0.4"/>
     <use xlink:href="#m170213a280" x="303.954545" y="84.652213" style="fill: #1f77b4; stroke: #ffffff; stroke-width: 0.4"/>
     <use xlink:href="#m170213a280" x="306.681818" y="104.853241" style="fill: #1f77b4; stroke: #ffffff; stroke-width: 0.4"/>
     <use xlink:href="#m170213a280" x="309.409091" y="69.107393" style="fill: #1f77b4; stroke: #ffffff; stroke-width: 0.4"/>
     <use xlink:href="#m170213a280" x="312.136364" y="92.617158" style="fill: #1f77b4; stroke: #ffffff; stroke-width: 0.4"/>
     <use xlink:href="#m170213a280" x="314.863636" y="31.140289" style="fill: #1f77b4; stroke: #ffffff; stroke-width: 0.4"/>
     <use xlink:href="#m170213a280" x="317.590909" y="157.962121" style="fill: #1f77b4; stroke: #ffffff; stroke-width: 0.4"/>
     <use xlink:href="#m170213a280" x="320.318182" y="118.978411" style="fill: #1f77b4; stroke: #ffffff; stroke-width: 0.4"/>
     <use xlink:href="#m170213a280" x="323.045455" y="70.183154" style="fill: #1f77b4; stroke: #ffffff; stroke-width: 0.4"/>
     <use xlink:href="#m170213a280" x="325.772727" y="18.409091" style="fill: #1f77b4; stroke: #ffffff; stroke-width: 0.4"/>
     <use xlink:href="#m170213a280" x="328.5" y="106.143797" style="fill: #1f77b4; stroke: #ffffff; stroke-width: 0.4"/>
    </g>
   </g>
   <g id="matplotlib.axis_1">
    <g id="xtick_1">
     <g id="line2d_1">
      <defs>
       <path id="m573ca8d342" d="M 0 0 
L 0 -4 
" style="stroke: #000000; stroke-width: 0.5"/>
      </defs>
      <g>
       <use xlink:href="#m573ca8d342" x="58.5" y="178.2" style="stroke: #000000; stroke-width: 0.5"/>
      </g>
     </g>
     <g id="line2d_2">
      <defs>
       <path id="md4dfec03fc" d="M 0 0 
L 0 4 
" style="stroke: #000000; stroke-width: 0.5"/>
      </defs>
      <g>
       <use xlink:href="#md4dfec03fc" x="58.5" y="10.8" style="stroke: #000000; stroke-width: 0.5"/>
      </g>
     </g>
     <g id="text_1">
      <!-- $\mathdefault{0.0}$ -->
      <g transform="translate(50.82 191.526875) scale(0.12 -0.12)">
       <defs>
        <path id="Cmr10-30" d="M 1600 -141 
Q 816 -141 533 504 
Q 250 1150 250 2041 
Q 250 2597 351 3087 
Q 453 3578 754 3920 
Q 1056 4263 1600 4263 
Q 2022 4263 2290 4056 
Q 2559 3850 2700 3523 
Q 2841 3197 2892 2823 
Q 2944 2450 2944 2041 
Q 2944 1491 2842 1011 
Q 2741 531 2444 195 
Q 2147 -141 1600 -141 
z
M 1600 25 
Q 1956 25 2131 390 
Q 2306 756 2347 1200 
Q 2388 1644 2388 2144 
Q 2388 2625 2347 3031 
Q 2306 3438 2132 3767 
Q 1959 4097 1600 4097 
Q 1238 4097 1063 3765 
Q 888 3434 847 3029 
Q 806 2625 806 2144 
Q 806 1788 823 1472 
Q 841 1156 916 820 
Q 991 484 1158 254 
Q 1325 25 1600 25 
z
" transform="scale(0.015625)"/>
        <path id="Cmr10-2e" d="M 538 353 
Q 538 497 644 600 
Q 750 703 891 703 
Q 978 703 1062 656 
Q 1147 609 1194 525 
Q 1241 441 1241 353 
Q 1241 213 1137 106 
Q 1034 0 891 0 
Q 750 0 644 106 
Q 538 213 538 353 
z
" transform="scale(0.015625)"/>
       </defs>
       <use xlink:href="#Cmr10-30" transform="translate(0 0.390625)"/>
       <use xlink:href="#Cmr10-2e" transform="translate(50 0.390625)"/>
       <use xlink:href="#Cmr10-30" transform="translate(77.685547 0.390625)"/>
      </g>
     </g>
    </g>
    <g id="xtick_2">
     <g id="line2d_3">
      <g>
       <use xlink:href="#m573ca8d342" x="112.5" y="178.2" style="stroke: #000000; stroke-width: 0.5"/>
      </g>
     </g>
     <g id="line2d_4">
      <g>
       <use xlink:href="#md4dfec03fc" x="112.5" y="10.8" style="stroke: #000000; stroke-width: 0.5"/>
      </g>
     </g>
     <g id="text_2">
      <!-- $\mathdefault{0.2}$ -->
      <g transform="translate(104.82 191.526875) scale(0.12 -0.12)">
       <defs>
        <path id="Cmr10-32" d="M 319 0 
L 319 172 
Q 319 188 331 206 
L 1325 1306 
Q 1550 1550 1690 1715 
Q 1831 1881 1968 2097 
Q 2106 2313 2186 2536 
Q 2266 2759 2266 3009 
Q 2266 3272 2169 3511 
Q 2072 3750 1880 3894 
Q 1688 4038 1416 4038 
Q 1138 4038 916 3870 
Q 694 3703 603 3438 
Q 628 3444 672 3444 
Q 816 3444 917 3347 
Q 1019 3250 1019 3097 
Q 1019 2950 917 2848 
Q 816 2747 672 2747 
Q 522 2747 420 2851 
Q 319 2956 319 3097 
Q 319 3338 409 3548 
Q 500 3759 670 3923 
Q 841 4088 1055 4175 
Q 1269 4263 1509 4263 
Q 1875 4263 2190 4108 
Q 2506 3953 2690 3670 
Q 2875 3388 2875 3009 
Q 2875 2731 2753 2481 
Q 2631 2231 2440 2026 
Q 2250 1822 1953 1562 
Q 1656 1303 1563 1216 
L 838 519 
L 1453 519 
Q 1906 519 2211 526 
Q 2516 534 2534 550 
Q 2609 631 2688 1141 
L 2875 1141 
L 2694 0 
L 319 0 
z
" transform="scale(0.015625)"/>
       </defs>
       <use xlink:href="#Cmr10-30" transform="translate(0 0.390625)"/>
       <use xlink:href="#Cmr10-2e" transform="translate(50 0.390625)"/>
       <use xlink:href="#Cmr10-32" transform="translate(77.685547 0.390625)"/>
      </g>
     </g>
    </g>
    <g id="xtick_3">
     <g id="line2d_5">
      <g>
       <use xlink:href="#m573ca8d342" x="166.5" y="178.2" style="stroke: #000000; stroke-width: 0.5"/>
      </g>
     </g>
     <g id="line2d_6">
      <g>
       <use xlink:href="#md4dfec03fc" x="166.5" y="10.8" style="stroke: #000000; stroke-width: 0.5"/>
      </g>
     </g>
     <g id="text_3">
      <!-- $\mathdefault{0.4}$ -->
      <g transform="translate(158.82 191.526875) scale(0.12 -0.12)">
       <defs>
        <path id="Cmr10-34" d="M 178 1056 
L 178 1281 
L 2156 4231 
Q 2178 4263 2222 4263 
L 2316 4263 
Q 2388 4263 2388 4191 
L 2388 1281 
L 3016 1281 
L 3016 1056 
L 2388 1056 
L 2388 428 
Q 2388 297 2575 261 
Q 2763 225 3009 225 
L 3009 0 
L 1247 0 
L 1247 225 
Q 1494 225 1681 261 
Q 1869 297 1869 428 
L 1869 1056 
L 178 1056 
z
M 391 1281 
L 1906 1281 
L 1906 3547 
L 391 1281 
z
" transform="scale(0.015625)"/>
       </defs>
       <use xlink:href="#Cmr10-30" transform="translate(0 0.390625)"/>
       <use xlink:href="#Cmr10-2e" transform="translate(50 0.390625)"/>
       <use xlink:href="#Cmr10-34" transform="translate(77.685547 0.390625)"/>
      </g>
     </g>
    </g>
    <g id="xtick_4">
     <g id="line2d_7">
      <g>
       <use xlink:href="#m573ca8d342" x="220.5" y="178.2" style="stroke: #000000; stroke-width: 0.5"/>
      </g>
     </g>
     <g id="line2d_8">
      <g>
       <use xlink:href="#md4dfec03fc" x="220.5" y="10.8" style="stroke: #000000; stroke-width: 0.5"/>
      </g>
     </g>
     <g id="text_4">
      <!-- $\mathdefault{0.6}$ -->
      <g transform="translate(212.82 191.526875) scale(0.12 -0.12)">
       <defs>
        <path id="Cmr10-36" d="M 1600 -141 
Q 1203 -141 937 70 
Q 672 281 526 617 
Q 381 953 325 1322 
Q 269 1691 269 2069 
Q 269 2575 466 3084 
Q 663 3594 1045 3928 
Q 1428 4263 1953 4263 
Q 2172 4263 2361 4180 
Q 2550 4097 2658 3936 
Q 2766 3775 2766 3547 
Q 2766 3416 2677 3327 
Q 2588 3238 2456 3238 
Q 2331 3238 2240 3328 
Q 2150 3419 2150 3547 
Q 2150 3672 2240 3762 
Q 2331 3853 2456 3853 
L 2491 3853 
Q 2409 3969 2261 4023 
Q 2113 4078 1953 4078 
Q 1759 4078 1595 3993 
Q 1431 3909 1300 3765 
Q 1169 3622 1081 3448 
Q 994 3275 945 3053 
Q 897 2831 884 2637 
Q 872 2444 872 2150 
Q 984 2413 1190 2580 
Q 1397 2747 1656 2747 
Q 1941 2747 2175 2631 
Q 2409 2516 2578 2311 
Q 2747 2106 2836 1843 
Q 2925 1581 2925 1313 
Q 2925 938 2758 598 
Q 2591 259 2287 59 
Q 1984 -141 1600 -141 
z
M 1600 63 
Q 1847 63 1997 175 
Q 2147 288 2217 473 
Q 2288 659 2305 848 
Q 2322 1038 2322 1313 
Q 2322 1675 2287 1931 
Q 2253 2188 2100 2383 
Q 1947 2578 1631 2578 
Q 1372 2578 1205 2403 
Q 1038 2228 961 1961 
Q 884 1694 884 1447 
Q 884 1363 891 1319 
Q 891 1309 889 1303 
Q 888 1297 884 1288 
Q 884 1013 940 731 
Q 997 450 1156 256 
Q 1316 63 1600 63 
z
" transform="scale(0.015625)"/>
       </defs>
       <use xlink:href="#Cmr10-30" transform="translate(0 0.390625)"/>
       <use xlink:href="#Cmr10-2e" transform="translate(50 0.390625)"/>
       <use xlink:href="#Cmr10-36" transform="translate(77.685547 0.390625)"/>
      </g>
     </g>
    </g>
    <g id="xtick_5">
     <g id="line2d_9">
      <g>
       <use xlink:href="#m573ca8d342" x="274.5" y="178.2" style="stroke: #000000; stroke-width: 0.5"/>
      </g>
     </g>
     <g id="line2d_10">
      <g>
       <use xlink:href="#md4dfec03fc" x="274.5" y="10.8" style="stroke: #000000; stroke-width: 0.5"/>
      </g>
     </g>
     <g id="text_5">
      <!-- $\mathdefault{0.8}$ -->
      <g transform="translate(266.82 191.526875) scale(0.12 -0.12)">
       <defs>
        <path id="Cmr10-38" d="M 269 972 
Q 269 1356 522 1651 
Q 775 1947 1172 2144 
L 934 2297 
Q 716 2441 578 2680 
Q 441 2919 441 3181 
Q 441 3488 602 3734 
Q 763 3981 1030 4122 
Q 1297 4263 1600 4263 
Q 1884 4263 2148 4147 
Q 2413 4031 2583 3815 
Q 2753 3600 2753 3303 
Q 2753 3088 2651 2903 
Q 2550 2719 2373 2572 
Q 2197 2425 1997 2322 
L 2363 2088 
Q 2616 1922 2770 1653 
Q 2925 1384 2925 1088 
Q 2925 741 2739 456 
Q 2553 172 2247 15 
Q 1941 -141 1600 -141 
Q 1269 -141 961 -6 
Q 653 128 461 383 
Q 269 638 269 972 
z
M 616 972 
Q 616 719 755 509 
Q 894 300 1122 181 
Q 1350 63 1600 63 
Q 1972 63 2275 280 
Q 2578 497 2578 856 
Q 2578 978 2529 1098 
Q 2481 1219 2395 1317 
Q 2309 1416 2203 1478 
L 1344 2034 
Q 1144 1928 976 1765 
Q 809 1603 712 1400 
Q 616 1197 616 972 
z
M 1056 2925 
L 1831 2425 
Q 2100 2581 2272 2803 
Q 2444 3025 2444 3303 
Q 2444 3519 2323 3698 
Q 2203 3878 2009 3978 
Q 1816 4078 1594 4078 
Q 1400 4078 1203 4003 
Q 1006 3928 878 3779 
Q 750 3631 750 3431 
Q 750 3131 1056 2925 
z
" transform="scale(0.015625)"/>
       </defs>
       <use xlink:href="#Cmr10-30" transform="translate(0 0.390625)"/>
       <use xlink:href="#Cmr10-2e" transform="translate(50 0.390625)"/>
       <use xlink:href="#Cmr10-38" transform="translate(77.685547 0.390625)"/>
      </g>
     </g>
    </g>
    <g id="xtick_6">
     <g id="line2d_11">
      <g>
       <use xlink:href="#m573ca8d342" x="328.5" y="178.2" style="stroke: #000000; stroke-width: 0.5"/>
      </g>
     </g>
     <g id="line2d_12">
      <g>
       <use xlink:href="#md4dfec03fc" x="328.5" y="10.8" style="stroke: #000000; stroke-width: 0.5"/>
      </g>
     </g>
     <g id="text_6">
      <!-- $\mathdefault{1.0}$ -->
      <g transform="translate(320.82 191.526875) scale(0.12 -0.12)">
       <defs>
        <path id="Cmr10-31" d="M 594 0 
L 594 225 
Q 1394 225 1394 428 
L 1394 3788 
Q 1063 3628 556 3628 
L 556 3853 
Q 1341 3853 1741 4263 
L 1831 4263 
Q 1853 4263 1873 4245 
Q 1894 4228 1894 4206 
L 1894 428 
Q 1894 225 2694 225 
L 2694 0 
L 594 0 
z
" transform="scale(0.015625)"/>
       </defs>
       <use xlink:href="#Cmr10-31" transform="translate(0 0.390625)"/>
       <use xlink:href="#Cmr10-2e" transform="translate(50 0.390625)"/>
       <use xlink:href="#Cmr10-30" transform="translate(77.685547 0.390625)"/>
      </g>
     </g>
    </g>
    <g id="xtick_7">
     <g id="line2d_13">
      <defs>
       <path id="mb8b06cd94c" d="M 0 0 
L 0 -2 
" style="stroke: #000000; stroke-width: 0.5"/>
      </defs>
      <g>
       <use xlink:href="#mb8b06cd94c" x="45" y="178.2" style="stroke: #000000; stroke-width: 0.5"/>
      </g>
     </g>
     <g id="line2d_14">
      <defs>
       <path id="m02da016c25" d="M 0 0 
L 0 2 
" style="stroke: #000000; stroke-width: 0.5"/>
      </defs>
      <g>
       <use xlink:href="#m02da016c25" x="45" y="10.8" style="stroke: #000000; stroke-width: 0.5"/>
      </g>
     </g>
    </g>
    <g id="xtick_8">
     <g id="line2d_15">
      <g>
       <use xlink:href="#mb8b06cd94c" x="72" y="178.2" style="stroke: #000000; stroke-width: 0.5"/>
      </g>
     </g>
     <g id="line2d_16">
      <g>
       <use xlink:href="#m02da016c25" x="72" y="10.8" style="stroke: #000000; stroke-width: 0.5"/>
      </g>
     </g>
    </g>
    <g id="xtick_9">
     <g id="line2d_17">
      <g>
       <use xlink:href="#mb8b06cd94c" x="85.5" y="178.2" style="stroke: #000000; stroke-width: 0.5"/>
      </g>
     </g>
     <g id="line2d_18">
      <g>
       <use xlink:href="#m02da016c25" x="85.5" y="10.8" style="stroke: #000000; stroke-width: 0.5"/>
      </g>
     </g>
    </g>
    <g id="xtick_10">
     <g id="line2d_19">
      <g>
       <use xlink:href="#mb8b06cd94c" x="99" y="178.2" style="stroke: #000000; stroke-width: 0.5"/>
      </g>
     </g>
     <g id="line2d_20">
      <g>
       <use xlink:href="#m02da016c25" x="99" y="10.8" style="stroke: #000000; stroke-width: 0.5"/>
      </g>
     </g>
    </g>
    <g id="xtick_11">
     <g id="line2d_21">
      <g>
       <use xlink:href="#mb8b06cd94c" x="126" y="178.2" style="stroke: #000000; stroke-width: 0.5"/>
      </g>
     </g>
     <g id="line2d_22">
      <g>
       <use xlink:href="#m02da016c25" x="126" y="10.8" style="stroke: #000000; stroke-width: 0.5"/>
      </g>
     </g>
    </g>
    <g id="xtick_12">
     <g id="line2d_23">
      <g>
       <use xlink:href="#mb8b06cd94c" x="139.5" y="178.2" style="stroke: #000000; stroke-width: 0.5"/>
      </g>
     </g>
     <g id="line2d_24">
      <g>
       <use xlink:href="#m02da016c25" x="139.5" y="10.8" style="stroke: #000000; stroke-width: 0.5"/>
      </g>
     </g>
    </g>
    <g id="xtick_13">
     <g id="line2d_25">
      <g>
       <use xlink:href="#mb8b06cd94c" x="153" y="178.2" style="stroke: #000000; stroke-width: 0.5"/>
      </g>
     </g>
     <g id="line2d_26">
      <g>
       <use xlink:href="#m02da016c25" x="153" y="10.8" style="stroke: #000000; stroke-width: 0.5"/>
      </g>
     </g>
    </g>
    <g id="xtick_14">
     <g id="line2d_27">
      <g>
       <use xlink:href="#mb8b06cd94c" x="180" y="178.2" style="stroke: #000000; stroke-width: 0.5"/>
      </g>
     </g>
     <g id="line2d_28">
      <g>
       <use xlink:href="#m02da016c25" x="180" y="10.8" style="stroke: #000000; stroke-width: 0.5"/>
      </g>
     </g>
    </g>
    <g id="xtick_15">
     <g id="line2d_29">
      <g>
       <use xlink:href="#mb8b06cd94c" x="193.5" y="178.2" style="stroke: #000000; stroke-width: 0.5"/>
      </g>
     </g>
     <g id="line2d_30">
      <g>
       <use xlink:href="#m02da016c25" x="193.5" y="10.8" style="stroke: #000000; stroke-width: 0.5"/>
      </g>
     </g>
    </g>
    <g id="xtick_16">
     <g id="line2d_31">
      <g>
       <use xlink:href="#mb8b06cd94c" x="207" y="178.2" style="stroke: #000000; stroke-width: 0.5"/>
      </g>
     </g>
     <g id="line2d_32">
      <g>
       <use xlink:href="#m02da016c25" x="207" y="10.8" style="stroke: #000000; stroke-width: 0.5"/>
      </g>
     </g>
    </g>
    <g id="xtick_17">
     <g id="line2d_33">
      <g>
       <use xlink:href="#mb8b06cd94c" x="234" y="178.2" style="stroke: #000000; stroke-width: 0.5"/>
      </g>
     </g>
     <g id="line2d_34">
      <g>
       <use xlink:href="#m02da016c25" x="234" y="10.8" style="stroke: #000000; stroke-width: 0.5"/>
      </g>
     </g>
    </g>
    <g id="xtick_18">
     <g id="line2d_35">
      <g>
       <use xlink:href="#mb8b06cd94c" x="247.5" y="178.2" style="stroke: #000000; stroke-width: 0.5"/>
      </g>
     </g>
     <g id="line2d_36">
      <g>
       <use xlink:href="#m02da016c25" x="247.5" y="10.8" style="stroke: #000000; stroke-width: 0.5"/>
      </g>
     </g>
    </g>
    <g id="xtick_19">
     <g id="line2d_37">
      <g>
       <use xlink:href="#mb8b06cd94c" x="261" y="178.2" style="stroke: #000000; stroke-width: 0.5"/>
      </g>
     </g>
     <g id="line2d_38">
      <g>
       <use xlink:href="#m02da016c25" x="261" y="10.8" style="stroke: #000000; stroke-width: 0.5"/>
      </g>
     </g>
    </g>
    <g id="xtick_20">
     <g id="line2d_39">
      <g>
       <use xlink:href="#mb8b06cd94c" x="288" y="178.2" style="stroke: #000000; stroke-width: 0.5"/>
      </g>
     </g>
     <g id="line2d_40">
      <g>
       <use xlink:href="#m02da016c25" x="288" y="10.8" style="stroke: #000000; stroke-width: 0.5"/>
      </g>
     </g>
    </g>
    <g id="xtick_21">
     <g id="line2d_41">
      <g>
       <use xlink:href="#mb8b06cd94c" x="301.5" y="178.2" style="stroke: #000000; stroke-width: 0.5"/>
      </g>
     </g>
     <g id="line2d_42">
      <g>
       <use xlink:href="#m02da016c25" x="301.5" y="10.8" style="stroke: #000000; stroke-width: 0.5"/>
      </g>
     </g>
    </g>
    <g id="xtick_22">
     <g id="line2d_43">
      <g>
       <use xlink:href="#mb8b06cd94c" x="315" y="178.2" style="stroke: #000000; stroke-width: 0.5"/>
      </g>
     </g>
     <g id="line2d_44">
      <g>
       <use xlink:href="#m02da016c25" x="315" y="10.8" style="stroke: #000000; stroke-width: 0.5"/>
      </g>
     </g>
    </g>
    <g id="xtick_23">
     <g id="line2d_45">
      <g>
       <use xlink:href="#mb8b06cd94c" x="342" y="178.2" style="stroke: #000000; stroke-width: 0.5"/>
      </g>
     </g>
     <g id="line2d_46">
      <g>
       <use xlink:href="#m02da016c25" x="342" y="10.8" style="stroke: #000000; stroke-width: 0.5"/>
      </g>
     </g>
    </g>
   </g>
   <g id="matplotlib.axis_2">
    <g id="ytick_1">
     <g id="line2d_47">
      <defs>
       <path id="m626349594c" d="M 0 0 
L 4 0 
" style="stroke: #000000; stroke-width: 0.5"/>
      </defs>
      <g>
       <use xlink:href="#m626349594c" x="45" y="177.732343" style="stroke: #000000; stroke-width: 0.5"/>
      </g>
     </g>
     <g id="line2d_48">
      <defs>
       <path id="m2d8f1d7864" d="M 0 0 
L -4 0 
" style="stroke: #000000; stroke-width: 0.5"/>
      </defs>
      <g>
       <use xlink:href="#m2d8f1d7864" x="342" y="177.732343" style="stroke: #000000; stroke-width: 0.5"/>
      </g>
     </g>
     <g id="text_7">
      <!-- $\mathdefault{−4}$ -->
      <g transform="translate(24.64 181.89578) scale(0.12 -0.12)">
       <defs>
        <path id="Cmsy10-a1" d="M 653 1472 
Q 600 1472 565 1512 
Q 531 1553 531 1600 
Q 531 1647 565 1687 
Q 600 1728 653 1728 
L 4325 1728 
Q 4375 1728 4408 1687 
Q 4441 1647 4441 1600 
Q 4441 1553 4408 1512 
Q 4375 1472 4325 1472 
L 653 1472 
z
" transform="scale(0.015625)"/>
       </defs>
       <use xlink:href="#Cmsy10-a1" transform="translate(0 0.390625)"/>
       <use xlink:href="#Cmr10-34" transform="translate(77.685547 0.390625)"/>
      </g>
     </g>
    </g>
    <g id="ytick_2">
     <g id="line2d_49">
      <g>
       <use xlink:href="#m626349594c" x="45" y="145.934505" style="stroke: #000000; stroke-width: 0.5"/>
      </g>
     </g>
     <g id="line2d_50">
      <g>
       <use xlink:href="#m2d8f1d7864" x="342" y="145.934505" style="stroke: #000000; stroke-width: 0.5"/>
      </g>
     </g>
     <g id="text_8">
      <!-- $\mathdefault{−2}$ -->
      <g transform="translate(24.64 150.097943) scale(0.12 -0.12)">
       <use xlink:href="#Cmsy10-a1" transform="translate(0 0.390625)"/>
       <use xlink:href="#Cmr10-32" transform="translate(77.685547 0.390625)"/>
      </g>
     </g>
    </g>
    <g id="ytick_3">
     <g id="line2d_51">
      <g>
       <use xlink:href="#m626349594c" x="45" y="114.136668" style="stroke: #000000; stroke-width: 0.5"/>
      </g>
     </g>
     <g id="line2d_52">
      <g>
       <use xlink:href="#m2d8f1d7864" x="342" y="114.136668" style="stroke: #000000; stroke-width: 0.5"/>
      </g>
     </g>
     <g id="text_9">
      <!-- $\mathdefault{0}$ -->
      <g transform="translate(34 118.300105) scale(0.12 -0.12)">
       <use xlink:href="#Cmr10-30" transform="translate(0 0.390625)"/>
      </g>
     </g>
    </g>
    <g id="ytick_4">
     <g id="line2d_53">
      <g>
       <use xlink:href="#m626349594c" x="45" y="82.33883" style="stroke: #000000; stroke-width: 0.5"/>
      </g>
     </g>
     <g id="line2d_54">
      <g>
       <use xlink:href="#m2d8f1d7864" x="342" y="82.33883" style="stroke: #000000; stroke-width: 0.5"/>
      </g>
     </g>
     <g id="text_10">
      <!-- $\mathdefault{2}$ -->
      <g transform="translate(34 86.502268) scale(0.12 -0.12)">
       <use xlink:href="#Cmr10-32" transform="translate(0 0.390625)"/>
      </g>
     </g>
    </g>
    <g id="ytick_5">
     <g id="line2d_55">
      <g>
       <use xlink:href="#m626349594c" x="45" y="50.540993" style="stroke: #000000; stroke-width: 0.5"/>
      </g>
     </g>
     <g id="line2d_56">
      <g>
       <use xlink:href="#m2d8f1d7864" x="342" y="50.540993" style="stroke: #000000; stroke-width: 0.5"/>
      </g>
     </g>
     <g id="text_11">
      <!-- $\mathdefault{4}$ -->
      <g transform="translate(34 54.70443) scale(0.12 -0.12)">
       <use xlink:href="#Cmr10-34" transform="translate(0 0.390625)"/>
      </g>
     </g>
    </g>
    <g id="ytick_6">
     <g id="line2d_57">
      <g>
       <use xlink:href="#m626349594c" x="45" y="18.743155" style="stroke: #000000; stroke-width: 0.5"/>
      </g>
     </g>
     <g id="line2d_58">
      <g>
       <use xlink:href="#m2d8f1d7864" x="342" y="18.743155" style="stroke: #000000; stroke-width: 0.5"/>
      </g>
     </g>
     <g id="text_12">
      <!-- $\mathdefault{6}$ -->
      <g transform="translate(34 22.906593) scale(0.12 -0.12)">
       <use xlink:href="#Cmr10-36" transform="translate(0 0.390625)"/>
      </g>
     </g>
    </g>
    <g id="ytick_7">
     <g id="line2d_59">
      <defs>
       <path id="meada59f380" d="M 0 0 
L 2 0 
" style="stroke: #000000; stroke-width: 0.5"/>
      </defs>
      <g>
       <use xlink:href="#meada59f380" x="45" y="169.782883" style="stroke: #000000; stroke-width: 0.5"/>
      </g>
     </g>
     <g id="line2d_60">
      <defs>
       <path id="m83e98c3a77" d="M 0 0 
L -2 0 
" style="stroke: #000000; stroke-width: 0.5"/>
      </defs>
      <g>
       <use xlink:href="#m83e98c3a77" x="342" y="169.782883" style="stroke: #000000; stroke-width: 0.5"/>
      </g>
     </g>
    </g>
    <g id="ytick_8">
     <g id="line2d_61">
      <g>
       <use xlink:href="#meada59f380" x="45" y="161.833424" style="stroke: #000000; stroke-width: 0.5"/>
      </g>
     </g>
     <g id="line2d_62">
      <g>
       <use xlink:href="#m83e98c3a77" x="342" y="161.833424" style="stroke: #000000; stroke-width: 0.5"/>
      </g>
     </g>
    </g>
    <g id="ytick_9">
     <g id="line2d_63">
      <g>
       <use xlink:href="#meada59f380" x="45" y="153.883965" style="stroke: #000000; stroke-width: 0.5"/>
      </g>
     </g>
     <g id="line2d_64">
      <g>
       <use xlink:href="#m83e98c3a77" x="342" y="153.883965" style="stroke: #000000; stroke-width: 0.5"/>
      </g>
     </g>
    </g>
    <g id="ytick_10">
     <g id="line2d_65">
      <g>
       <use xlink:href="#meada59f380" x="45" y="137.985046" style="stroke: #000000; stroke-width: 0.5"/>
      </g>
     </g>
     <g id="line2d_66">
      <g>
       <use xlink:href="#m83e98c3a77" x="342" y="137.985046" style="stroke: #000000; stroke-width: 0.5"/>
      </g>
     </g>
    </g>
    <g id="ytick_11">
     <g id="line2d_67">
      <g>
       <use xlink:href="#meada59f380" x="45" y="130.035586" style="stroke: #000000; stroke-width: 0.5"/>
      </g>
     </g>
     <g id="line2d_68">
      <g>
       <use xlink:href="#m83e98c3a77" x="342" y="130.035586" style="stroke: #000000; stroke-width: 0.5"/>
      </g>
     </g>
    </g>
    <g id="ytick_12">
     <g id="line2d_69">
      <g>
       <use xlink:href="#meada59f380" x="45" y="122.086127" style="stroke: #000000; stroke-width: 0.5"/>
      </g>
     </g>
     <g id="line2d_70">
      <g>
       <use xlink:href="#m83e98c3a77" x="342" y="122.086127" style="stroke: #000000; stroke-width: 0.5"/>
      </g>
     </g>
    </g>
    <g id="ytick_13">
     <g id="line2d_71">
      <g>
       <use xlink:href="#meada59f380" x="45" y="106.187208" style="stroke: #000000; stroke-width: 0.5"/>
      </g>
     </g>
     <g id="line2d_72">
      <g>
       <use xlink:href="#m83e98c3a77" x="342" y="106.187208" style="stroke: #000000; stroke-width: 0.5"/>
      </g>
     </g>
    </g>
    <g id="ytick_14">
     <g id="line2d_73">
      <g>
       <use xlink:href="#meada59f380" x="45" y="98.237749" style="stroke: #000000; stroke-width: 0.5"/>
      </g>
     </g>
     <g id="line2d_74">
      <g>
       <use xlink:href="#m83e98c3a77" x="342" y="98.237749" style="stroke: #000000; stroke-width: 0.5"/>
      </g>
     </g>
    </g>
    <g id="ytick_15">
     <g id="line2d_75">
      <g>
       <use xlink:href="#meada59f380" x="45" y="90.28829" style="stroke: #000000; stroke-width: 0.5"/>
      </g>
     </g>
     <g id="line2d_76">
      <g>
       <use xlink:href="#m83e98c3a77" x="342" y="90.28829" style="stroke: #000000; stroke-width: 0.5"/>
      </g>
     </g>
    </g>
    <g id="ytick_16">
     <g id="line2d_77">
      <g>
       <use xlink:href="#meada59f380" x="45" y="74.389371" style="stroke: #000000; stroke-width: 0.5"/>
      </g>
     </g>
     <g id="line2d_78">
      <g>
       <use xlink:href="#m83e98c3a77" x="342" y="74.389371" style="stroke: #000000; stroke-width: 0.5"/>
      </g>
     </g>
    </g>
    <g id="ytick_17">
     <g id="line2d_79">
      <g>
       <use xlink:href="#meada59f380" x="45" y="66.439911" style="stroke: #000000; stroke-width: 0.5"/>
      </g>
     </g>
     <g id="line2d_80">
      <g>
       <use xlink:href="#m83e98c3a77" x="342" y="66.439911" style="stroke: #000000; stroke-width: 0.5"/>
      </g>
     </g>
    </g>
    <g id="ytick_18">
     <g id="line2d_81">
      <g>
       <use xlink:href="#meada59f380" x="45" y="58.490452" style="stroke: #000000; stroke-width: 0.5"/>
      </g>
     </g>
     <g id="line2d_82">
      <g>
       <use xlink:href="#m83e98c3a77" x="342" y="58.490452" style="stroke: #000000; stroke-width: 0.5"/>
      </g>
     </g>
    </g>
    <g id="ytick_19">
     <g id="line2d_83">
      <g>
       <use xlink:href="#meada59f380" x="45" y="42.591533" style="stroke: #000000; stroke-width: 0.5"/>
      </g>
     </g>
     <g id="line2d_84">
      <g>
       <use xlink:href="#m83e98c3a77" x="342" y="42.591533" style="stroke: #000000; stroke-width: 0.5"/>
      </g>
     </g>
    </g>
    <g id="ytick_20">
     <g id="line2d_85">
      <g>
       <use xlink:href="#meada59f380" x="45" y="34.642074" style="stroke: #000000; stroke-width: 0.5"/>
      </g>
     </g>
     <g id="line2d_86">
      <g>
       <use xlink:href="#m83e98c3a77" x="342" y="34.642074" style="stroke: #000000; stroke-width: 0.5"/>
      </g>
     </g>
    </g>
    <g id="ytick_21">
     <g id="line2d_87">
      <g>
       <use xlink:href="#meada59f380" x="45" y="26.692615" style="stroke: #000000; stroke-width: 0.5"/>
      </g>
     </g>
     <g id="line2d_88">
      <g>
       <use xlink:href="#m83e98c3a77" x="342" y="26.692615" style="stroke: #000000; stroke-width: 0.5"/>
      </g>
     </g>
    </g>
   </g>
   <g id="line2d_89">
    <path d="M 58.5 114.960687 
L 61.227273 114.738134 
L 63.954545 114.515582 
L 66.681818 114.29303 
L 69.409091 114.070477 
L 72.136364 113.847925 
L 74.863636 113.625373 
L 77.590909 113.402821 
L 80.318182 113.180268 
L 83.045455 112.957716 
L 85.772727 112.735164 
L 88.5 112.512611 
L 91.227273 112.290059 
L 93.954545 112.067507 
L 96.681818 111.844955 
L 99.409091 111.622402 
L 102.136364 111.39985 
L 104.863636 111.177298 
L 107.590909 110.954745 
L 110.318182 110.732193 
L 113.045455 110.509641 
L 115.772727 110.287089 
L 118.5 110.064536 
L 121.227273 109.841984 
L 123.954545 109.619432 
L 126.681818 109.396879 
L 129.409091 109.174327 
L 132.136364 108.951775 
L 134.863636 108.729223 
L 137.590909 108.50667 
L 140.318182 108.284118 
L 143.045455 108.061566 
L 145.772727 107.839013 
L 148.5 107.616461 
L 151.227273 107.393909 
L 153.954545 107.171356 
L 156.681818 106.948804 
L 159.409091 106.726252 
L 162.136364 106.5037 
L 164.863636 106.281147 
L 167.590909 106.058595 
L 170.318182 105.836043 
L 173.045455 105.61349 
L 175.772727 105.390938 
L 178.5 105.168386 
L 181.227273 104.945834 
L 183.954545 104.723281 
L 186.681818 104.500729 
L 189.409091 104.278177 
L 192.136364 104.055624 
L 194.863636 103.833072 
L 197.590909 103.61052 
L 200.318182 103.387968 
L 203.045455 103.165415 
L 205.772727 102.942863 
L 208.5 102.720311 
L 211.227273 102.497758 
L 213.954545 102.275206 
L 216.681818 102.052654 
L 219.409091 101.830102 
L 222.136364 101.607549 
L 224.863636 101.384997 
L 227.590909 101.162445 
L 230.318182 100.939892 
L 233.045455 100.71734 
L 235.772727 100.494788 
L 238.5 100.272236 
L 241.227273 100.049683 
L 243.954545 99.827131 
L 246.681818 99.604579 
L 249.409091 99.382026 
L 252.136364 99.159474 
L 254.863636 98.936922 
L 257.590909 98.714369 
L 260.318182 98.491817 
L 263.045455 98.269265 
L 265.772727 98.046713 
L 268.5 97.82416 
L 271.227273 97.601608 
L 273.954545 97.379056 
L 276.681818 97.156503 
L 279.409091 96.933951 
L 282.136364 96.711399 
L 284.863636 96.488847 
L 287.590909 96.266294 
L 290.318182 96.043742 
L 293.045455 95.82119 
L 295.772727 95.598637 
L 298.5 95.376085 
L 301.227273 95.153533 
L 303.954545 94.930981 
L 306.681818 94.708428 
L 309.409091 94.485876 
L 312.136364 94.263324 
L 314.863636 94.040771 
L 317.590909 93.818219 
L 320.318182 93.595667 
L 323.045455 93.373115 
L 325.772727 93.150562 
L 328.5 92.92801 
" clip-path="url(#p0b9127b421)" style="fill: none; stroke: #1f77b4; stroke-linecap: square"/>
   </g>
   <g id="line2d_90">
    <path d="M 58.5 101.587328 
L 61.227273 101.08891 
L 63.954545 100.590492 
L 66.681818 100.092075 
L 69.409091 99.593657 
L 72.136364 99.095239 
L 74.863636 98.596821 
L 77.590909 98.098404 
L 80.318182 97.599986 
L 83.045455 97.101568 
L 85.772727 96.603151 
L 88.5 96.104733 
L 91.227273 95.606315 
L 93.954545 95.107898 
L 96.681818 94.60948 
L 99.409091 94.111062 
L 102.136364 93.612645 
L 104.863636 93.114227 
L 107.590909 92.615809 
L 110.318182 92.117392 
L 113.045455 91.618974 
L 115.772727 91.120556 
L 118.5 90.622138 
L 121.227273 90.123721 
L 123.954545 89.625303 
L 126.681818 89.126885 
L 129.409091 88.628468 
L 132.136364 88.13005 
L 134.863636 87.631632 
L 137.590909 87.133215 
L 140.318182 86.634797 
L 143.045455 86.136379 
L 145.772727 85.637962 
L 148.5 85.139544 
L 151.227273 84.641126 
L 153.954545 84.142708 
L 156.681818 83.644291 
L 159.409091 83.145873 
L 162.136364 82.647455 
L 164.863636 82.149038 
L 167.590909 81.65062 
L 170.318182 81.152202 
L 173.045455 80.653785 
L 175.772727 80.155367 
L 178.5 79.656949 
L 181.227273 79.158532 
L 183.954545 78.660114 
L 186.681818 78.161696 
L 189.409091 77.663279 
L 192.136364 77.164861 
L 194.863636 76.666443 
L 197.590909 76.168025 
L 200.318182 75.669608 
L 203.045455 75.17119 
L 205.772727 74.672772 
L 208.5 74.174355 
L 211.227273 73.675937 
L 213.954545 73.177519 
L 216.681818 72.679102 
L 219.409091 72.180684 
L 222.136364 71.682266 
L 224.863636 71.183849 
L 227.590909 70.685431 
L 230.318182 70.187013 
L 233.045455 69.688595 
L 235.772727 69.190178 
L 238.5 68.69176 
L 241.227273 68.193342 
L 243.954545 67.694925 
L 246.681818 67.196507 
L 249.409091 66.698089 
L 252.136364 66.199672 
L 254.863636 65.701254 
L 257.590909 65.202836 
L 260.318182 64.704419 
L 263.045455 64.206001 
L 265.772727 63.707583 
L 268.5 63.209166 
L 271.227273 62.710748 
L 273.954545 62.21233 
L 276.681818 61.713912 
L 279.409091 61.215495 
L 282.136364 60.717077 
L 284.863636 60.218659 
L 287.590909 59.720242 
L 290.318182 59.221824 
L 293.045455 58.723406 
L 295.772727 58.224989 
L 298.5 57.726571 
L 301.227273 57.228153 
L 303.954545 56.729736 
L 306.681818 56.231318 
L 309.409091 55.7329 
L 312.136364 55.234482 
L 314.863636 54.736065 
L 317.590909 54.237647 
L 320.318182 53.739229 
L 323.045455 53.240812 
L 325.772727 52.742394 
L 328.5 52.243976 
" clip-path="url(#p0b9127b421)" style="fill: none; stroke: #ff7f0e; stroke-linecap: square"/>
   </g>
   <g id="line2d_91">
    <path d="M 58.5 108.994726 
L 61.227273 108.61523 
L 63.954545 108.235734 
L 66.681818 107.856238 
L 69.409091 107.476742 
L 72.136364 107.097246 
L 74.863636 106.717751 
L 77.590909 106.338255 
L 80.318182 105.958759 
L 83.045455 105.579263 
L 85.772727 105.199767 
L 88.5 104.820271 
L 91.227273 104.440775 
L 93.954545 104.061279 
L 96.681818 103.681783 
L 99.409091 103.302288 
L 102.136364 102.922792 
L 104.863636 102.543296 
L 107.590909 102.1638 
L 110.318182 101.784304 
L 113.045455 101.404808 
L 115.772727 101.025312 
L 118.5 100.645816 
L 121.227273 100.26632 
L 123.954545 99.886825 
L 126.681818 99.507329 
L 129.409091 99.127833 
L 132.136364 98.748337 
L 134.863636 98.368841 
L 137.590909 97.989345 
L 140.318182 97.609849 
L 143.045455 97.230353 
L 145.772727 96.850857 
L 148.5 96.471362 
L 151.227273 96.091866 
L 153.954545 95.71237 
L 156.681818 95.332874 
L 159.409091 94.953378 
L 162.136364 94.573882 
L 164.863636 94.194386 
L 167.590909 93.81489 
L 170.318182 93.435394 
L 173.045455 93.055899 
L 175.772727 92.676403 
L 178.5 92.296907 
L 181.227273 91.917411 
L 183.954545 91.537915 
L 186.681818 91.158419 
L 189.409091 90.778923 
L 192.136364 90.399427 
L 194.863636 90.019931 
L 197.590909 89.640436 
L 200.318182 89.26094 
L 203.045455 88.881444 
L 205.772727 88.501948 
L 208.5 88.122452 
L 211.227273 87.742956 
L 213.954545 87.36346 
L 216.681818 86.983964 
L 219.409091 86.604468 
L 222.136364 86.224973 
L 224.863636 85.845477 
L 227.590909 85.465981 
L 230.318182 85.086485 
L 233.045455 84.706989 
L 235.772727 84.327493 
L 238.5 83.947997 
L 241.227273 83.568501 
L 243.954545 83.189005 
L 246.681818 82.80951 
L 249.409091 82.430014 
L 252.136364 82.050518 
L 254.863636 81.671022 
L 257.590909 81.291526 
L 260.318182 80.91203 
L 263.045455 80.532534 
L 265.772727 80.153038 
L 268.5 79.773542 
L 271.227273 79.394047 
L 273.954545 79.014551 
L 276.681818 78.635055 
L 279.409091 78.255559 
L 282.136364 77.876063 
L 284.863636 77.496567 
L 287.590909 77.117071 
L 290.318182 76.737575 
L 293.045455 76.358079 
L 295.772727 75.978584 
L 298.5 75.599088 
L 301.227273 75.219592 
L 303.954545 74.840096 
L 306.681818 74.4606 
L 309.409091 74.081104 
L 312.136364 73.701608 
L 314.863636 73.322112 
L 317.590909 72.942616 
L 320.318182 72.563121 
L 323.045455 72.183625 
L 325.772727 71.804129 
L 328.5 71.424633 
" clip-path="url(#p0b9127b421)" style="fill: none; stroke: #2ca02c; stroke-linecap: square"/>
   </g>
   <g id="line2d_92">
    <path d="M 58.5 110.797268 
L 61.227273 110.653372 
L 63.954545 110.509475 
L 66.681818 110.365578 
L 69.409091 110.221682 
L 72.136364 110.077785 
L 74.863636 109.933889 
L 77.590909 109.789992 
L 80.318182 109.646095 
L 83.045455 109.502199 
L 85.772727 109.358302 
L 88.5 109.214405 
L 91.227273 109.070509 
L 93.954545 108.926612 
L 96.681818 108.782716 
L 99.409091 108.638819 
L 102.136364 108.494922 
L 104.863636 108.351026 
L 107.590909 108.207129 
L 110.318182 108.063233 
L 113.045455 107.919336 
L 115.772727 107.775439 
L 118.5 107.631543 
L 121.227273 107.487646 
L 123.954545 107.343749 
L 126.681818 107.199853 
L 129.409091 107.055956 
L 132.136364 106.91206 
L 134.863636 106.768163 
L 137.590909 106.624266 
L 140.318182 106.48037 
L 143.045455 106.336473 
L 145.772727 106.192577 
L 148.5 106.04868 
L 151.227273 105.904783 
L 153.954545 105.760887 
L 156.681818 105.61699 
L 159.409091 105.473093 
L 162.136364 105.329197 
L 164.863636 105.1853 
L 167.590909 105.041404 
L 170.318182 104.897507 
L 173.045455 104.75361 
L 175.772727 104.609714 
L 178.5 104.465817 
L 181.227273 104.32192 
L 183.954545 104.178024 
L 186.681818 104.034127 
L 189.409091 103.890231 
L 192.136364 103.746334 
L 194.863636 103.602437 
L 197.590909 103.458541 
L 200.318182 103.314644 
L 203.045455 103.170748 
L 205.772727 103.026851 
L 208.5 102.882954 
L 211.227273 102.739058 
L 213.954545 102.595161 
L 216.681818 102.451264 
L 219.409091 102.307368 
L 222.136364 102.163471 
L 224.863636 102.019575 
L 227.590909 101.875678 
L 230.318182 101.731781 
L 233.045455 101.587885 
L 235.772727 101.443988 
L 238.5 101.300092 
L 241.227273 101.156195 
L 243.954545 101.012298 
L 246.681818 100.868402 
L 249.409091 100.724505 
L 252.136364 100.580608 
L 254.863636 100.436712 
L 257.590909 100.292815 
L 260.318182 100.148919 
L 263.045455 100.005022 
L 265.772727 99.861125 
L 268.5 99.717229 
L 271.227273 99.573332 
L 273.954545 99.429436 
L 276.681818 99.285539 
L 279.409091 99.141642 
L 282.136364 98.997746 
L 284.863636 98.853849 
L 287.590909 98.709952 
L 290.318182 98.566056 
L 293.045455 98.422159 
L 295.772727 98.278263 
L 298.5 98.134366 
L 301.227273 97.990469 
L 303.954545 97.846573 
L 306.681818 97.702676 
L 309.409091 97.558779 
L 312.136364 97.414883 
L 314.863636 97.270986 
L 317.590909 97.12709 
L 320.318182 96.983193 
L 323.045455 96.839296 
L 325.772727 96.6954 
L 328.5 96.551503 
" clip-path="url(#p0b9127b421)" style="fill: none; stroke: #d62728; stroke-linecap: square"/>
   </g>
   <g id="line2d_93">
    <path d="M 58.5 118.8558 
L 61.227273 118.81897 
L 63.954545 118.78214 
L 66.681818 118.74531 
L 69.409091 118.70848 
L 72.136364 118.67165 
L 74.863636 118.63482 
L 77.590909 118.597989 
L 80.318182 118.561159 
L 83.045455 118.524329 
L 85.772727 118.487499 
L 88.5 118.450669 
L 91.227273 118.413839 
L 93.954545 118.377009 
L 96.681818 118.340179 
L 99.409091 118.303349 
L 102.136364 118.266519 
L 104.863636 118.229689 
L 107.590909 118.192859 
L 110.318182 118.156029 
L 113.045455 118.119199 
L 115.772727 118.082369 
L 118.5 118.045538 
L 121.227273 118.008708 
L 123.954545 117.971878 
L 126.681818 117.935048 
L 129.409091 117.898218 
L 132.136364 117.861388 
L 134.863636 117.824558 
L 137.590909 117.787728 
L 140.318182 117.750898 
L 143.045455 117.714068 
L 145.772727 117.677238 
L 148.5 117.640408 
L 151.227273 117.603578 
L 153.954545 117.566748 
L 156.681818 117.529918 
L 159.409091 117.493087 
L 162.136364 117.456257 
L 164.863636 117.419427 
L 167.590909 117.382597 
L 170.318182 117.345767 
L 173.045455 117.308937 
L 175.772727 117.272107 
L 178.5 117.235277 
L 181.227273 117.198447 
L 183.954545 117.161617 
L 186.681818 117.124787 
L 189.409091 117.087957 
L 192.136364 117.051127 
L 194.863636 117.014297 
L 197.590909 116.977466 
L 200.318182 116.940636 
L 203.045455 116.903806 
L 205.772727 116.866976 
L 208.5 116.830146 
L 211.227273 116.793316 
L 213.954545 116.756486 
L 216.681818 116.719656 
L 219.409091 116.682826 
L 222.136364 116.645996 
L 224.863636 116.609166 
L 227.590909 116.572336 
L 230.318182 116.535506 
L 233.045455 116.498676 
L 235.772727 116.461846 
L 238.5 116.425015 
L 241.227273 116.388185 
L 243.954545 116.351355 
L 246.681818 116.314525 
L 249.409091 116.277695 
L 252.136364 116.240865 
L 254.863636 116.204035 
L 257.590909 116.167205 
L 260.318182 116.130375 
L 263.045455 116.093545 
L 265.772727 116.056715 
L 268.5 116.019885 
L 271.227273 115.983055 
L 273.954545 115.946225 
L 276.681818 115.909395 
L 279.409091 115.872564 
L 282.136364 115.835734 
L 284.863636 115.798904 
L 287.590909 115.762074 
L 290.318182 115.725244 
L 293.045455 115.688414 
L 295.772727 115.651584 
L 298.5 115.614754 
L 301.227273 115.577924 
L 303.954545 115.541094 
L 306.681818 115.504264 
L 309.409091 115.467434 
L 312.136364 115.430604 
L 314.863636 115.393774 
L 317.590909 115.356943 
L 320.318182 115.320113 
L 323.045455 115.283283 
L 325.772727 115.246453 
L 328.5 115.209623 
" clip-path="url(#p0b9127b421)" style="fill: none; stroke: #9467bd; stroke-linecap: square"/>
   </g>
   <g id="line2d_94">
    <path d="M 58.5 130.37551 
L 61.227273 130.429721 
L 63.954545 130.483933 
L 66.681818 130.538144 
L 69.409091 130.592356 
L 72.136364 130.646567 
L 74.863636 130.700779 
L 77.590909 130.75499 
L 80.318182 130.809202 
L 83.045455 130.863413 
L 85.772727 130.917624 
L 88.5 130.971836 
L 91.227273 131.026047 
L 93.954545 131.080259 
L 96.681818 131.13447 
L 99.409091 131.188682 
L 102.136364 131.242893 
L 104.863636 131.297105 
L 107.590909 131.351316 
L 110.318182 131.405528 
L 113.045455 131.459739 
L 115.772727 131.51395 
L 118.5 131.568162 
L 121.227273 131.622373 
L 123.954545 131.676585 
L 126.681818 131.730796 
L 129.409091 131.785008 
L 132.136364 131.839219 
L 134.863636 131.893431 
L 137.590909 131.947642 
L 140.318182 132.001854 
L 143.045455 132.056065 
L 145.772727 132.110276 
L 148.5 132.164488 
L 151.227273 132.218699 
L 153.954545 132.272911 
L 156.681818 132.327122 
L 159.409091 132.381334 
L 162.136364 132.435545 
L 164.863636 132.489757 
L 167.590909 132.543968 
L 170.318182 132.59818 
L 173.045455 132.652391 
L 175.772727 132.706602 
L 178.5 132.760814 
L 181.227273 132.815025 
L 183.954545 132.869237 
L 186.681818 132.923448 
L 189.409091 132.97766 
L 192.136364 133.031871 
L 194.863636 133.086083 
L 197.590909 133.140294 
L 200.318182 133.194506 
L 203.045455 133.248717 
L 205.772727 133.302928 
L 208.5 133.35714 
L 211.227273 133.411351 
L 213.954545 133.465563 
L 216.681818 133.519774 
L 219.409091 133.573986 
L 222.136364 133.628197 
L 224.863636 133.682409 
L 227.590909 133.73662 
L 230.318182 133.790832 
L 233.045455 133.845043 
L 235.772727 133.899254 
L 238.5 133.953466 
L 241.227273 134.007677 
L 243.954545 134.061889 
L 246.681818 134.1161 
L 249.409091 134.170312 
L 252.136364 134.224523 
L 254.863636 134.278735 
L 257.590909 134.332946 
L 260.318182 134.387158 
L 263.045455 134.441369 
L 265.772727 134.49558 
L 268.5 134.549792 
L 271.227273 134.604003 
L 273.954545 134.658215 
L 276.681818 134.712426 
L 279.409091 134.766638 
L 282.136364 134.820849 
L 284.863636 134.875061 
L 287.590909 134.929272 
L 290.318182 134.983484 
L 293.045455 135.037695 
L 295.772727 135.091906 
L 298.5 135.146118 
L 301.227273 135.200329 
L 303.954545 135.254541 
L 306.681818 135.308752 
L 309.409091 135.362964 
L 312.136364 135.417175 
L 314.863636 135.471387 
L 317.590909 135.525598 
L 320.318182 135.579809 
L 323.045455 135.634021 
L 325.772727 135.688232 
L 328.5 135.742444 
" clip-path="url(#p0b9127b421)" style="fill: none; stroke: #8c564b; stroke-linecap: square"/>
   </g>
   <g id="patch_3">
    <path d="M 45 178.2 
L 45 10.8 
" style="fill: none; stroke: #000000; stroke-width: 0.8; stroke-linejoin: miter; stroke-linecap: square"/>
   </g>
   <g id="patch_4">
    <path d="M 342 178.2 
L 342 10.8 
" style="fill: none; stroke: #000000; stroke-width: 0.8; stroke-linejoin: miter; stroke-linecap: square"/>
   </g>
   <g id="patch_5">
    <path d="M 45 178.2 
L 342 178.2 
" style="fill: none; stroke: #000000; stroke-width: 0.8; stroke-linejoin: miter; stroke-linecap: square"/>
   </g>
   <g id="patch_6">
    <path d="M 45 10.8 
L 342 10.8 
" style="fill: none; stroke: #000000; stroke-width: 0.8; stroke-linejoin: miter; stroke-linecap: square"/>
   </g>
   <g id="legend_1">
    <g id="line2d_95">
     <path d="M 54 23.3 
L 64 23.3 
L 74 23.3 
" style="fill: none; stroke: #1f77b4; stroke-linecap: square"/>
    </g>
    <g id="text_13">
     <!-- mean -->
     <g transform="translate(82 26.8) scale(0.1 -0.1)">
      <defs>
       <path id="Cmr10-6d" d="M 191 0 
L 191 225 
Q 409 225 550 259 
Q 691 294 691 428 
L 691 2175 
Q 691 2347 639 2423 
Q 588 2500 491 2517 
Q 394 2534 191 2534 
L 191 2759 
L 1119 2828 
L 1119 2203 
Q 1247 2478 1498 2653 
Q 1750 2828 2047 2828 
Q 2784 2828 2913 2228 
Q 3041 2497 3287 2662 
Q 3534 2828 3828 2828 
Q 4119 2828 4317 2734 
Q 4516 2641 4616 2448 
Q 4716 2256 4716 1966 
L 4716 428 
Q 4716 294 4858 259 
Q 5000 225 5216 225 
L 5216 0 
L 3750 0 
L 3750 225 
Q 3969 225 4109 259 
Q 4250 294 4250 428 
L 4250 1947 
Q 4250 2269 4159 2466 
Q 4069 2663 3788 2663 
Q 3419 2663 3178 2366 
Q 2938 2069 2938 1691 
L 2938 428 
Q 2938 294 3078 259 
Q 3219 225 3438 225 
L 3438 0 
L 1972 0 
L 1972 225 
Q 2191 225 2331 259 
Q 2472 294 2472 428 
L 2472 1947 
Q 2472 2259 2381 2461 
Q 2291 2663 2009 2663 
Q 1638 2663 1398 2366 
Q 1159 2069 1159 1691 
L 1159 428 
Q 1159 294 1300 259 
Q 1441 225 1656 225 
L 1656 0 
L 191 0 
z
" transform="scale(0.015625)"/>
       <path id="Cmr10-65" d="M 1594 -72 
Q 1203 -72 876 133 
Q 550 338 364 680 
Q 178 1022 178 1403 
Q 178 1778 348 2115 
Q 519 2453 823 2661 
Q 1128 2869 1503 2869 
Q 1797 2869 2014 2770 
Q 2231 2672 2372 2497 
Q 2513 2322 2584 2084 
Q 2656 1847 2656 1563 
Q 2656 1478 2591 1478 
L 738 1478 
L 738 1409 
Q 738 878 952 497 
Q 1166 116 1650 116 
Q 1847 116 2014 203 
Q 2181 291 2304 447 
Q 2428 603 2472 781 
Q 2478 803 2495 820 
Q 2513 838 2534 838 
L 2591 838 
Q 2656 838 2656 756 
Q 2566 394 2266 161 
Q 1966 -72 1594 -72 
z
M 744 1638 
L 2203 1638 
Q 2203 1878 2136 2125 
Q 2069 2372 1912 2536 
Q 1756 2700 1503 2700 
Q 1141 2700 942 2361 
Q 744 2022 744 1638 
z
" transform="scale(0.015625)"/>
       <path id="Cmr10-61" d="M 256 628 
Q 256 1009 556 1248 
Q 856 1488 1276 1586 
Q 1697 1684 2075 1684 
L 2075 1947 
Q 2075 2131 1994 2304 
Q 1913 2478 1759 2589 
Q 1606 2700 1422 2700 
Q 997 2700 775 2509 
Q 897 2509 976 2417 
Q 1056 2325 1056 2203 
Q 1056 2075 965 1984 
Q 875 1894 750 1894 
Q 622 1894 531 1984 
Q 441 2075 441 2203 
Q 441 2541 747 2705 
Q 1053 2869 1422 2869 
Q 1681 2869 1943 2758 
Q 2206 2647 2373 2440 
Q 2541 2234 2541 1959 
L 2541 519 
Q 2541 394 2594 289 
Q 2647 184 2759 184 
Q 2866 184 2917 290 
Q 2969 397 2969 519 
L 2969 928 
L 3156 928 
L 3156 519 
Q 3156 375 3081 245 
Q 3006 116 2879 39 
Q 2753 -38 2606 -38 
Q 2419 -38 2283 107 
Q 2147 253 2131 453 
Q 2013 213 1781 70 
Q 1550 -72 1288 -72 
Q 1044 -72 808 0 
Q 572 72 414 226 
Q 256 381 256 628 
z
M 775 628 
Q 775 403 940 250 
Q 1106 97 1331 97 
Q 1538 97 1706 200 
Q 1875 303 1975 481 
Q 2075 659 2075 856 
L 2075 1522 
Q 1784 1522 1479 1426 
Q 1175 1331 975 1128 
Q 775 925 775 628 
z
" transform="scale(0.015625)"/>
       <path id="Cmr10-6e" d="M 191 0 
L 191 225 
Q 409 225 550 259 
Q 691 294 691 428 
L 691 2175 
Q 691 2347 639 2423 
Q 588 2500 491 2517 
Q 394 2534 191 2534 
L 191 2759 
L 1119 2828 
L 1119 2203 
Q 1247 2478 1498 2653 
Q 1750 2828 2047 2828 
Q 2491 2828 2714 2615 
Q 2938 2403 2938 1966 
L 2938 428 
Q 2938 294 3078 259 
Q 3219 225 3438 225 
L 3438 0 
L 1972 0 
L 1972 225 
Q 2191 225 2331 259 
Q 2472 294 2472 428 
L 2472 1947 
Q 2472 2259 2381 2461 
Q 2291 2663 2009 2663 
Q 1638 2663 1398 2366 
Q 1159 2069 1159 1691 
L 1159 428 
Q 1159 294 1300 259 
Q 1441 225 1656 225 
L 1656 0 
L 191 0 
z
" transform="scale(0.015625)"/>
      </defs>
      <use xlink:href="#Cmr10-6d"/>
      <use xlink:href="#Cmr10-65" transform="translate(83.300781 0)"/>
      <use xlink:href="#Cmr10-61" transform="translate(127.685547 0)"/>
      <use xlink:href="#Cmr10-6e" transform="translate(177.685547 0)"/>
     </g>
    </g>
    <g id="line2d_96">
     <path d="M 54 37.239063 
L 64 37.239063 
L 74 37.239063 
" style="fill: none; stroke: #ff7f0e; stroke-linecap: square"/>
    </g>
    <g id="text_14">
     <!-- 0.90 -->
     <g transform="translate(82 40.739063) scale(0.1 -0.1)">
      <defs>
       <path id="Cmr10-39" d="M 722 269 
Q 897 63 1331 63 
Q 1575 63 1786 228 
Q 1997 394 2113 634 
Q 2247 906 2284 1214 
Q 2322 1522 2322 1978 
Q 2213 1719 2008 1553 
Q 1803 1388 1538 1388 
Q 1166 1388 873 1589 
Q 581 1791 425 2120 
Q 269 2450 269 2822 
Q 269 3206 444 3539 
Q 619 3872 928 4067 
Q 1238 4263 1631 4263 
Q 2019 4263 2280 4052 
Q 2541 3841 2678 3508 
Q 2816 3175 2870 2803 
Q 2925 2431 2925 2069 
Q 2925 1575 2744 1061 
Q 2563 547 2202 203 
Q 1841 -141 1331 -141 
Q 953 -141 690 37 
Q 428 216 428 575 
Q 428 706 517 795 
Q 606 884 738 884 
Q 866 884 955 795 
Q 1044 706 1044 575 
Q 1044 450 953 359 
Q 863 269 738 269 
L 722 269 
z
M 1563 1556 
Q 1825 1556 1992 1732 
Q 2159 1909 2234 2171 
Q 2309 2434 2309 2694 
L 2309 2816 
L 2309 2841 
Q 2309 3322 2168 3700 
Q 2028 4078 1631 4078 
Q 1378 4078 1220 3967 
Q 1063 3856 988 3672 
Q 913 3488 892 3278 
Q 872 3069 872 2822 
Q 872 2459 906 2203 
Q 941 1947 1094 1751 
Q 1247 1556 1563 1556 
z
" transform="scale(0.015625)"/>
      </defs>
      <use xlink:href="#Cmr10-30"/>
      <use xlink:href="#Cmr10-2e" transform="translate(50 0)"/>
      <use xlink:href="#Cmr10-39" transform="translate(77.685547 0)"/>
      <use xlink:href="#Cmr10-30" transform="translate(127.685547 0)"/>
     </g>
    </g>
    <g id="line2d_97">
     <path d="M 54 51.178125 
L 64 51.178125 
L 74 51.178125 
" style="fill: none; stroke: #2ca02c; stroke-linecap: square"/>
    </g>
    <g id="text_15">
     <!-- 0.75 -->
     <g transform="translate(82 54.678125) scale(0.1 -0.1)">
      <defs>
       <path id="Cmr10-37" d="M 1113 166 
Q 1113 522 1175 862 
Q 1238 1203 1358 1536 
Q 1478 1869 1648 2189 
Q 1819 2509 2022 2791 
L 2606 3603 
L 1875 3603 
Q 738 3603 703 3572 
Q 619 3469 544 2981 
L 359 2981 
L 569 4325 
L 756 4325 
L 756 4306 
Q 756 4191 1147 4156 
Q 1538 4122 1913 4122 
L 3103 4122 
L 3103 3956 
Q 3103 3950 3101 3947 
Q 3100 3944 3097 3938 
L 2216 2700 
Q 1891 2219 1809 1631 
Q 1728 1044 1728 166 
Q 1728 41 1637 -50 
Q 1547 -141 1422 -141 
Q 1294 -141 1203 -50 
Q 1113 41 1113 166 
z
" transform="scale(0.015625)"/>
       <path id="Cmr10-35" d="M 556 728 
Q 622 541 758 387 
Q 894 234 1080 148 
Q 1266 63 1466 63 
Q 1928 63 2103 422 
Q 2278 781 2278 1294 
Q 2278 1516 2270 1667 
Q 2263 1819 2228 1959 
Q 2169 2184 2020 2353 
Q 1872 2522 1656 2522 
Q 1441 2522 1286 2456 
Q 1131 2391 1034 2303 
Q 938 2216 863 2119 
Q 788 2022 769 2016 
L 697 2016 
Q 681 2016 657 2036 
Q 634 2056 634 2075 
L 634 4213 
Q 634 4228 654 4245 
Q 675 4263 697 4263 
L 716 4263 
Q 1147 4056 1631 4056 
Q 2106 4056 2547 4263 
L 2566 4263 
Q 2588 4263 2606 4247 
Q 2625 4231 2625 4213 
L 2625 4153 
Q 2625 4122 2613 4122 
Q 2394 3831 2064 3668 
Q 1734 3506 1381 3506 
Q 1125 3506 856 3578 
L 856 2369 
Q 1069 2541 1236 2614 
Q 1403 2688 1663 2688 
Q 2016 2688 2295 2484 
Q 2575 2281 2725 1954 
Q 2875 1628 2875 1288 
Q 2875 903 2686 575 
Q 2497 247 2172 53 
Q 1847 -141 1466 -141 
Q 1150 -141 886 21 
Q 622 184 470 459 
Q 319 734 319 1044 
Q 319 1188 412 1278 
Q 506 1369 647 1369 
Q 788 1369 883 1276 
Q 978 1184 978 1044 
Q 978 906 883 811 
Q 788 716 647 716 
Q 625 716 597 720 
Q 569 725 556 728 
z
" transform="scale(0.015625)"/>
      </defs>
      <use xlink:href="#Cmr10-30"/>
      <use xlink:href="#Cmr10-2e" transform="translate(50 0)"/>
      <use xlink:href="#Cmr10-37" transform="translate(77.685547 0)"/>
      <use xlink:href="#Cmr10-35" transform="translate(127.685547 0)"/>
     </g>
    </g>
    <g id="line2d_98">
     <path d="M 54 65.117188 
L 64 65.117188 
L 74 65.117188 
" style="fill: none; stroke: #d62728; stroke-linecap: square"/>
    </g>
    <g id="text_16">
     <!-- 0.50 -->
     <g transform="translate(82 68.617188) scale(0.1 -0.1)">
      <use xlink:href="#Cmr10-30"/>
      <use xlink:href="#Cmr10-2e" transform="translate(50 0)"/>
      <use xlink:href="#Cmr10-35" transform="translate(77.685547 0)"/>
      <use xlink:href="#Cmr10-30" transform="translate(127.685547 0)"/>
     </g>
    </g>
    <g id="line2d_99">
     <path d="M 54 79.05625 
L 64 79.05625 
L 74 79.05625 
" style="fill: none; stroke: #9467bd; stroke-linecap: square"/>
    </g>
    <g id="text_17">
     <!-- 0.25 -->
     <g transform="translate(82 82.55625) scale(0.1 -0.1)">
      <use xlink:href="#Cmr10-30"/>
      <use xlink:href="#Cmr10-2e" transform="translate(50 0)"/>
      <use xlink:href="#Cmr10-32" transform="translate(77.685547 0)"/>
      <use xlink:href="#Cmr10-35" transform="translate(127.685547 0)"/>
     </g>
    </g>
    <g id="line2d_100">
     <path d="M 54 92.995313 
L 64 92.995313 
L 74 92.995313 
" style="fill: none; stroke: #8c564b; stroke-linecap: square"/>
    </g>
    <g id="text_18">
     <!-- 0.10 -->
     <g transform="translate(82 96.495313) scale(0.1 -0.1)">
      <use xlink:href="#Cmr10-30"/>
      <use xlink:href="#Cmr10-2e" transform="translate(50 0)"/>
      <use xlink:href="#Cmr10-31" transform="translate(77.685547 0)"/>
      <use xlink:href="#Cmr10-30" transform="translate(127.685547 0)"/>
     </g>
    </g>
   </g>
  </g>
 </g>
 <defs>
  <clipPath id="p0b9127b421">
   <rect x="45" y="10.8" width="297" height="167.4"/>
  </clipPath>
 </defs>
</svg>
