<?xml version="1.0" encoding="utf-8" standalone="no"?>
<!DOCTYPE svg PUBLIC "-//W3C//DTD SVG 1.1//EN"
  "http://www.w3.org/Graphics/SVG/1.1/DTD/svg11.dtd">
<svg xmlns:xlink="http://www.w3.org/1999/xlink" width="282.249844pt" height="209.297813pt" viewBox="0 0 282.249844 209.297813" xmlns="http://www.w3.org/2000/svg" version="1.1">
 <metadata>
  <rdf:RDF xmlns:dc="http://purl.org/dc/elements/1.1/" xmlns:cc="http://creativecommons.org/ns#" xmlns:rdf="http://www.w3.org/1999/02/22-rdf-syntax-ns#">
   <cc:Work>
    <dc:type rdf:resource="http://purl.org/dc/dcmitype/StillImage"/>
    <dc:date>2025-03-04T20:43:44.647473</dc:date>
    <dc:format>image/svg+xml</dc:format>
    <dc:creator>
     <cc:Agent>
      <dc:title>Matplotlib v3.10.1, https://matplotlib.org/</dc:title>
     </cc:Agent>
    </dc:creator>
   </cc:Work>
  </rdf:RDF>
 </metadata>
 <defs>
  <style type="text/css">*{stroke-linejoin: round; stroke-linecap: butt}</style>
 </defs>
 <g id="figure_1">
  <g id="patch_1">
   <path d="M 0 209.297813 
L 282.249844 209.297813 
L 282.249844 0 
L 0 0 
L 0 209.297813 
z
" style="fill: none"/>
  </g>
  <g id="axes_1">
   <g id="patch_2">
    <path d="M 42.194844 84.226563 
L 145.762344 84.226563 
L 145.762344 19.446562 
L 42.194844 19.446562 
L 42.194844 84.226563 
z
" style="fill: none"/>
   </g>
   <g id="FillBetweenPolyCollection_1"/>
   <g id="matplotlib.axis_1">
    <g id="xtick_1">
     <g id="line2d_1">
      <defs>
       <path id="md7655903cc" d="M 0 0 
L 0 3.5 
" style="stroke: #000000; stroke-width: 0.8"/>
      </defs>
      <g>
       <use xlink:href="#md7655903cc" x="64.556009" y="84.226563" style="stroke: #000000; stroke-width: 0.8"/>
      </g>
     </g>
    </g>
    <g id="xtick_2">
     <g id="line2d_2">
      <g>
       <use xlink:href="#md7655903cc" x="93.978594" y="84.226563" style="stroke: #000000; stroke-width: 0.8"/>
      </g>
     </g>
    </g>
    <g id="xtick_3">
     <g id="line2d_3">
      <g>
       <use xlink:href="#md7655903cc" x="123.401179" y="84.226563" style="stroke: #000000; stroke-width: 0.8"/>
      </g>
     </g>
    </g>
   </g>
   <g id="matplotlib.axis_2">
    <g id="ytick_1">
     <g id="line2d_4">
      <defs>
       <path id="m4dc20c3517" d="M 0 0 
L -3.5 0 
" style="stroke: #000000; stroke-width: 0.8"/>
      </defs>
      <g>
       <use xlink:href="#m4dc20c3517" x="42.194844" y="78.014417" style="stroke: #000000; stroke-width: 0.8"/>
      </g>
     </g>
     <g id="text_1">
      <!-- −10 -->
      <g transform="translate(19.193125 81.137698) scale(0.09 -0.09)">
       <defs>
        <path id="CMUSerif-Roman-2212" d="M 365 1594 
Q 365 1670 493 1670 
L 4416 1670 
Q 4422 1670 4451 1670 
Q 4480 1670 4489 1670 
Q 4499 1670 4521 1670 
Q 4544 1670 4553 1664 
Q 4563 1658 4576 1651 
Q 4589 1645 4595 1632 
Q 4602 1619 4602 1600 
Q 4602 1523 4435 1523 
L 4422 1523 
Q 4403 1523 4368 1526 
Q 4333 1530 4314 1530 
L 710 1530 
Q 685 1530 637 1526 
Q 589 1523 563 1523 
L 531 1523 
Q 365 1523 365 1594 
z
" transform="scale(0.015625)"/>
        <path id="CMUSerif-Roman-31" d="M 570 3654 
L 570 3853 
Q 1338 3853 1734 4262 
Q 1843 4262 1862 4236 
Q 1882 4211 1882 4096 
L 1882 506 
Q 1882 314 1974 256 
Q 2067 198 2477 198 
L 2682 198 
L 2682 0 
Q 2458 19 1645 19 
Q 832 19 608 0 
L 608 198 
L 813 198 
Q 1216 198 1312 256 
Q 1408 314 1408 506 
L 1408 3821 
Q 1075 3654 570 3654 
z
" transform="scale(0.015625)"/>
        <path id="CMUSerif-Roman-30" d="M 250 2048 
Q 250 2989 486 3501 
Q 819 4262 1600 4262 
Q 1766 4262 1939 4217 
Q 2112 4173 2333 4000 
Q 2554 3827 2688 3546 
Q 2944 3002 2944 2048 
Q 2944 1114 2707 602 
Q 2362 -141 1594 -141 
Q 1306 -141 1014 6 
Q 723 154 538 506 
Q 250 1037 250 2048 
z
M 781 2125 
Q 781 1158 851 774 
Q 928 358 1142 179 
Q 1357 0 1594 0 
Q 1850 0 2064 192 
Q 2278 384 2342 800 
Q 2413 1210 2413 2125 
Q 2413 3014 2349 3373 
Q 2266 3789 2042 3955 
Q 1818 4122 1594 4122 
Q 1510 4122 1420 4096 
Q 1331 4070 1203 4000 
Q 1075 3930 976 3750 
Q 877 3571 832 3302 
Q 781 2957 781 2125 
z
" transform="scale(0.015625)"/>
       </defs>
       <use xlink:href="#CMUSerif-Roman-2212"/>
       <use xlink:href="#CMUSerif-Roman-31" transform="translate(77.799988 0)"/>
       <use xlink:href="#CMUSerif-Roman-30" transform="translate(127.799973 0)"/>
      </g>
     </g>
    </g>
    <g id="ytick_2">
     <g id="line2d_5">
      <g>
       <use xlink:href="#m4dc20c3517" x="42.194844" y="54.512285" style="stroke: #000000; stroke-width: 0.8"/>
      </g>
     </g>
     <g id="text_2">
      <!-- 0 -->
      <g transform="translate(30.694844 57.635566) scale(0.09 -0.09)">
       <use xlink:href="#CMUSerif-Roman-30"/>
      </g>
     </g>
    </g>
    <g id="ytick_3">
     <g id="line2d_6">
      <g>
       <use xlink:href="#m4dc20c3517" x="42.194844" y="31.010152" style="stroke: #000000; stroke-width: 0.8"/>
      </g>
     </g>
     <g id="text_3">
      <!-- 10 -->
      <g transform="translate(26.194844 34.133434) scale(0.09 -0.09)">
       <use xlink:href="#CMUSerif-Roman-31"/>
       <use xlink:href="#CMUSerif-Roman-30" transform="translate(49.999985 0)"/>
      </g>
     </g>
    </g>
    <g id="text_4">
     <!-- coefficient -->
     <g transform="translate(13.446562 71.561328) rotate(-90) scale(0.09 -0.09)">
      <defs>
       <path id="CMUSerif-Roman-63" d="M 624 352 
Q 218 774 218 1382 
Q 218 1990 618 2428 
Q 1018 2867 1606 2867 
Q 1997 2867 2291 2681 
Q 2586 2496 2586 2182 
Q 2586 2042 2502 1962 
Q 2419 1882 2291 1882 
Q 2157 1882 2077 1965 
Q 1997 2048 1997 2176 
Q 1997 2234 2016 2288 
Q 2035 2342 2105 2403 
Q 2176 2464 2298 2470 
Q 2067 2707 1613 2707 
Q 1286 2707 1017 2400 
Q 749 2093 749 1395 
Q 749 1030 838 761 
Q 928 493 1075 355 
Q 1222 218 1366 154 
Q 1510 90 1651 90 
Q 2278 90 2490 762 
Q 2509 826 2573 826 
Q 2656 826 2656 762 
Q 2656 730 2630 650 
Q 2605 570 2528 442 
Q 2451 314 2339 202 
Q 2227 90 2032 10 
Q 1837 -70 1594 -70 
Q 1030 -70 624 352 
z
" transform="scale(0.015625)"/>
       <path id="CMUSerif-Roman-6f" d="M 601 346 
Q 179 762 179 1370 
Q 179 1978 592 2422 
Q 1005 2867 1600 2867 
Q 2182 2867 2598 2425 
Q 3014 1984 3014 1370 
Q 3014 768 2595 349 
Q 2176 -70 1594 -70 
Q 1024 -70 601 346 
z
M 710 1421 
Q 710 800 870 518 
Q 1120 90 1600 90 
Q 1837 90 2035 218 
Q 2234 346 2342 563 
Q 2483 845 2483 1421 
Q 2483 2035 2317 2310 
Q 2067 2726 1594 2726 
Q 1389 2726 1187 2617 
Q 986 2509 864 2298 
Q 710 2016 710 1421 
z
" transform="scale(0.015625)"/>
       <path id="CMUSerif-Roman-65" d="M 179 1408 
Q 179 2010 566 2438 
Q 954 2867 1510 2867 
Q 2074 2867 2365 2502 
Q 2656 2138 2656 1613 
Q 2656 1517 2630 1497 
Q 2605 1478 2496 1478 
L 710 1478 
Q 710 826 902 518 
Q 1171 90 1626 90 
Q 1690 90 1763 102 
Q 1837 115 1990 169 
Q 2144 224 2278 371 
Q 2413 518 2490 749 
Q 2509 838 2573 838 
Q 2656 838 2656 762 
Q 2656 704 2595 579 
Q 2534 454 2419 304 
Q 2304 154 2080 42 
Q 1856 -70 1587 -70 
Q 1024 -70 601 355 
Q 179 781 179 1408 
z
M 717 1613 
L 2234 1613 
Q 2234 1747 2211 1897 
Q 2189 2048 2121 2256 
Q 2054 2464 1897 2595 
Q 1741 2726 1510 2726 
Q 1408 2726 1296 2681 
Q 1184 2637 1049 2531 
Q 915 2426 822 2186 
Q 730 1946 717 1613 
z
" transform="scale(0.015625)"/>
       <path id="CMUSerif-Roman-66" d="M 211 2560 
L 211 2758 
L 717 2758 
L 717 3494 
Q 717 3968 1024 4240 
Q 1331 4512 1709 4512 
Q 1958 4512 2121 4377 
Q 2285 4243 2285 4064 
Q 2285 3942 2211 3862 
Q 2138 3782 2003 3782 
Q 1875 3782 1801 3862 
Q 1728 3942 1728 4058 
Q 1728 4262 1920 4326 
Q 1824 4371 1709 4371 
Q 1478 4371 1299 4134 
Q 1120 3898 1120 3501 
L 1120 2758 
L 1869 2758 
L 1869 2560 
L 1139 2560 
L 1139 499 
Q 1139 314 1216 256 
Q 1293 198 1626 198 
L 1760 198 
L 1760 0 
Q 1504 19 947 19 
Q 870 19 748 16 
Q 627 13 467 6 
Q 307 0 218 0 
L 218 198 
Q 557 198 637 240 
Q 717 282 717 486 
L 717 2560 
L 211 2560 
z
" transform="scale(0.015625)"/>
       <path id="CMUSerif-Roman-69" d="M 211 0 
L 211 198 
Q 550 198 630 240 
Q 710 282 710 486 
L 710 2208 
Q 710 2445 630 2502 
Q 550 2560 237 2560 
L 237 2758 
L 1133 2829 
L 1133 480 
Q 1133 288 1200 243 
Q 1267 198 1581 198 
L 1581 0 
Q 928 19 915 19 
Q 826 19 211 0 
z
M 480 3942 
Q 480 4070 579 4176 
Q 678 4282 819 4282 
Q 960 4282 1059 4186 
Q 1158 4090 1158 3942 
Q 1158 3795 1059 3699 
Q 960 3603 819 3603 
Q 672 3603 576 3705 
Q 480 3808 480 3942 
z
" transform="scale(0.015625)"/>
       <path id="CMUSerif-Roman-6e" d="M 205 0 
L 205 198 
Q 544 198 624 240 
Q 704 282 704 486 
L 704 2202 
Q 704 2438 621 2499 
Q 538 2560 205 2560 
L 205 2758 
L 1107 2829 
L 1107 2157 
Q 1408 2829 2054 2829 
Q 2534 2829 2726 2592 
Q 2867 2432 2896 2253 
Q 2925 2074 2925 1613 
L 2925 390 
Q 2931 256 3033 227 
Q 3136 198 3424 198 
L 3424 0 
Q 2771 19 2707 19 
Q 2656 19 1984 0 
L 1984 198 
Q 2323 198 2403 240 
Q 2483 282 2483 486 
L 2483 1978 
Q 2483 2304 2384 2496 
Q 2285 2688 2010 2688 
Q 1677 2688 1411 2409 
Q 1146 2131 1146 1664 
L 1146 486 
Q 1146 282 1226 240 
Q 1306 198 1645 198 
L 1645 0 
Q 992 19 928 19 
Q 877 19 205 0 
z
" transform="scale(0.015625)"/>
       <path id="CMUSerif-Roman-74" d="M 122 2560 
L 122 2701 
Q 416 2714 611 2922 
Q 806 3130 873 3386 
Q 941 3642 947 3936 
L 1107 3936 
L 1107 2758 
L 2022 2758 
L 2022 2560 
L 1107 2560 
L 1107 781 
Q 1107 90 1536 90 
Q 1722 90 1843 278 
Q 1965 467 1965 806 
L 1965 1158 
L 2125 1158 
L 2125 794 
Q 2125 448 1965 189 
Q 1805 -70 1491 -70 
Q 1376 -70 1261 -41 
Q 1146 -13 998 64 
Q 851 141 758 329 
Q 666 518 666 794 
L 666 2560 
L 122 2560 
z
" transform="scale(0.015625)"/>
      </defs>
      <use xlink:href="#CMUSerif-Roman-63"/>
      <use xlink:href="#CMUSerif-Roman-6f" transform="translate(44.399994 0)"/>
      <use xlink:href="#CMUSerif-Roman-65" transform="translate(94.399979 0)"/>
      <use xlink:href="#CMUSerif-Roman-66" transform="translate(138.799973 0)"/>
      <use xlink:href="#CMUSerif-Roman-66" transform="translate(169.299957 0)"/>
      <use xlink:href="#CMUSerif-Roman-69" transform="translate(199.799942 0)"/>
      <use xlink:href="#CMUSerif-Roman-63" transform="translate(227.499939 0)"/>
      <use xlink:href="#CMUSerif-Roman-69" transform="translate(271.899933 0)"/>
      <use xlink:href="#CMUSerif-Roman-65" transform="translate(299.59993 0)"/>
      <use xlink:href="#CMUSerif-Roman-6e" transform="translate(343.999924 0)"/>
      <use xlink:href="#CMUSerif-Roman-74" transform="translate(399.499908 0)"/>
     </g>
    </g>
   </g>
   <g id="line2d_7">
    <path d="M 46.902457 78.779261 
L 51.85784 78.110369 
L 56.813223 81.282017 
L 61.768606 68.430815 
L 66.723988 67.025855 
L 71.679371 64.502584 
L 76.634754 73.09232 
L 81.590137 68.186414 
L 86.54552 64.264736 
L 91.500902 56.590259 
L 96.456285 57.225531 
L 101.411668 58.261928 
L 106.367051 59.212288 
L 111.322433 54.897401 
L 116.277816 56.814007 
L 121.233199 57.025882 
L 126.188582 54.512285 
L 131.143965 54.512285 
L 136.099347 54.512285 
L 141.05473 54.512285 
" clip-path="url(#pe1aa6472c2)" style="fill: none; stroke: #1f77b4; stroke-width: 1.5; stroke-linecap: square"/>
   </g>
   <g id="patch_3">
    <path d="M 42.194844 84.226562 
L 42.194844 19.446562 
" style="fill: none; stroke: #000000; stroke-width: 0.8; stroke-linejoin: miter; stroke-linecap: square"/>
   </g>
   <g id="patch_4">
    <path d="M 42.194844 84.226563 
L 145.762344 84.226563 
" style="fill: none; stroke: #000000; stroke-width: 0.8; stroke-linejoin: miter; stroke-linecap: square"/>
   </g>
   <g id="text_5">
    <!-- feature = raceth -->
    <g transform="translate(61.610234 13.446562) scale(0.09 -0.09)">
     <defs>
      <path id="CMUSerif-Roman-61" d="M 269 608 
Q 269 1152 909 1440 
Q 1293 1626 2086 1670 
L 2086 1907 
Q 2086 2304 1878 2515 
Q 1670 2726 1408 2726 
Q 941 2726 717 2432 
Q 909 2426 976 2330 
Q 1043 2234 1043 2138 
Q 1043 2010 963 1926 
Q 883 1843 749 1843 
Q 621 1843 537 1923 
Q 454 2003 454 2144 
Q 454 2458 736 2662 
Q 1018 2867 1421 2867 
Q 1946 2867 2298 2515 
Q 2406 2406 2460 2265 
Q 2515 2125 2521 2032 
Q 2528 1939 2528 1760 
L 2528 480 
Q 2528 442 2541 381 
Q 2554 320 2611 240 
Q 2669 160 2765 160 
Q 2995 160 2995 570 
L 2995 928 
L 3155 928 
L 3155 570 
Q 3155 230 2976 96 
Q 2797 -38 2630 -38 
Q 2419 -38 2284 118 
Q 2150 275 2131 486 
Q 2035 243 1814 86 
Q 1594 -70 1293 -70 
Q 1062 -70 844 -12 
Q 627 45 448 205 
Q 269 365 269 608 
z
M 762 614 
Q 762 378 931 224 
Q 1101 70 1338 70 
Q 1606 70 1846 278 
Q 2086 486 2086 896 
L 2086 1536 
Q 1376 1510 1069 1228 
Q 762 947 762 614 
z
" transform="scale(0.015625)"/>
      <path id="CMUSerif-Roman-75" d="M 205 2560 
L 205 2758 
L 1146 2829 
L 1146 704 
Q 1146 550 1158 460 
Q 1171 371 1222 268 
Q 1274 166 1395 118 
Q 1517 70 1709 70 
Q 2054 70 2268 355 
Q 2483 640 2483 1062 
L 2483 2202 
Q 2483 2438 2400 2499 
Q 2317 2560 1984 2560 
L 1984 2758 
L 2925 2829 
L 2925 557 
Q 2925 320 3008 259 
Q 3091 198 3424 198 
L 3424 0 
L 2502 -70 
L 2502 506 
Q 2234 -70 1677 -70 
Q 1395 -70 1203 0 
Q 1011 70 915 160 
Q 819 250 768 422 
Q 717 595 710 700 
Q 704 806 704 1011 
L 704 1971 
Q 704 2406 640 2483 
Q 576 2560 205 2560 
z
" transform="scale(0.015625)"/>
      <path id="CMUSerif-Roman-72" d="M 179 0 
L 179 198 
Q 518 198 598 240 
Q 678 282 678 486 
L 678 2202 
Q 678 2438 595 2499 
Q 512 2560 179 2560 
L 179 2758 
L 1069 2829 
L 1069 2125 
Q 1158 2400 1350 2614 
Q 1542 2829 1856 2829 
Q 2061 2829 2195 2713 
Q 2330 2598 2330 2438 
Q 2330 2298 2243 2227 
Q 2157 2157 2054 2157 
Q 1939 2157 1859 2230 
Q 1779 2304 1779 2432 
Q 1779 2509 1814 2569 
Q 1850 2630 1878 2652 
Q 1907 2675 1926 2682 
Q 1914 2688 1856 2688 
Q 1504 2688 1302 2336 
Q 1101 1984 1101 1485 
L 1101 499 
Q 1101 314 1177 256 
Q 1254 198 1587 198 
L 1722 198 
L 1722 0 
Q 1466 19 909 19 
Q 832 19 710 16 
Q 589 13 429 6 
Q 269 0 179 0 
z
" transform="scale(0.015625)"/>
      <path id="CMUSerif-Roman-20" transform="scale(0.015625)"/>
      <path id="CMUSerif-Roman-3d" d="M 365 973 
Q 371 1050 493 1050 
L 4416 1050 
Q 4602 1050 4602 979 
Q 4602 902 4429 902 
L 538 902 
Q 365 902 365 973 
z
M 365 2221 
Q 365 2298 499 2298 
L 4410 2298 
Q 4602 2298 4602 2221 
Q 4602 2150 4442 2150 
L 493 2150 
Q 365 2150 365 2221 
z
" transform="scale(0.015625)"/>
      <path id="CMUSerif-Roman-68" d="M 205 0 
L 205 198 
Q 544 198 624 240 
Q 704 282 704 486 
L 704 3814 
Q 704 4051 621 4112 
Q 538 4173 205 4173 
L 205 4371 
L 1126 4442 
L 1126 2214 
L 1133 2214 
Q 1235 2445 1465 2637 
Q 1696 2829 2054 2829 
Q 2534 2829 2726 2592 
Q 2867 2432 2896 2253 
Q 2925 2074 2925 1613 
L 2925 390 
Q 2931 256 3033 227 
Q 3136 198 3424 198 
L 3424 0 
Q 2771 19 2707 19 
Q 2656 19 1984 0 
L 1984 198 
Q 2323 198 2403 240 
Q 2483 282 2483 486 
L 2483 1978 
Q 2483 2304 2384 2496 
Q 2285 2688 2010 2688 
Q 1677 2688 1411 2409 
Q 1146 2131 1146 1664 
L 1146 486 
Q 1146 282 1226 240 
Q 1306 198 1645 198 
L 1645 0 
Q 992 19 928 19 
Q 877 19 205 0 
z
" transform="scale(0.015625)"/>
     </defs>
     <use xlink:href="#CMUSerif-Roman-66"/>
     <use xlink:href="#CMUSerif-Roman-65" transform="translate(30.499985 0)"/>
     <use xlink:href="#CMUSerif-Roman-61" transform="translate(74.899979 0)"/>
     <use xlink:href="#CMUSerif-Roman-74" transform="translate(124.899963 0)"/>
     <use xlink:href="#CMUSerif-Roman-75" transform="translate(163.699951 0)"/>
     <use xlink:href="#CMUSerif-Roman-72" transform="translate(219.199936 0)"/>
     <use xlink:href="#CMUSerif-Roman-65" transform="translate(258.299927 0)"/>
     <use xlink:href="#CMUSerif-Roman-20" transform="translate(302.699921 0)"/>
     <use xlink:href="#CMUSerif-Roman-3d" transform="translate(335.999908 0)"/>
     <use xlink:href="#CMUSerif-Roman-20" transform="translate(413.799896 0)"/>
     <use xlink:href="#CMUSerif-Roman-72" transform="translate(447.099884 0)"/>
     <use xlink:href="#CMUSerif-Roman-61" transform="translate(486.199875 0)"/>
     <use xlink:href="#CMUSerif-Roman-63" transform="translate(536.19986 0)"/>
     <use xlink:href="#CMUSerif-Roman-65" transform="translate(580.599854 0)"/>
     <use xlink:href="#CMUSerif-Roman-74" transform="translate(624.999847 0)"/>
     <use xlink:href="#CMUSerif-Roman-68" transform="translate(663.799835 0)"/>
    </g>
   </g>
  </g>
  <g id="axes_2">
   <g id="patch_5">
    <path d="M 171.482344 84.226563 
L 275.049844 84.226563 
L 275.049844 19.446562 
L 171.482344 19.446562 
L 171.482344 84.226563 
z
" style="fill: none"/>
   </g>
   <g id="FillBetweenPolyCollection_2"/>
   <g id="matplotlib.axis_3">
    <g id="xtick_4">
     <g id="line2d_8">
      <g>
       <use xlink:href="#md7655903cc" x="193.843509" y="84.226563" style="stroke: #000000; stroke-width: 0.8"/>
      </g>
     </g>
    </g>
    <g id="xtick_5">
     <g id="line2d_9">
      <g>
       <use xlink:href="#md7655903cc" x="223.266094" y="84.226563" style="stroke: #000000; stroke-width: 0.8"/>
      </g>
     </g>
    </g>
    <g id="xtick_6">
     <g id="line2d_10">
      <g>
       <use xlink:href="#md7655903cc" x="252.688679" y="84.226563" style="stroke: #000000; stroke-width: 0.8"/>
      </g>
     </g>
    </g>
   </g>
   <g id="matplotlib.axis_4">
    <g id="ytick_4">
     <g id="line2d_11">
      <g>
       <use xlink:href="#m4dc20c3517" x="171.482344" y="78.014417" style="stroke: #000000; stroke-width: 0.8"/>
      </g>
     </g>
    </g>
    <g id="ytick_5">
     <g id="line2d_12">
      <g>
       <use xlink:href="#m4dc20c3517" x="171.482344" y="54.512285" style="stroke: #000000; stroke-width: 0.8"/>
      </g>
     </g>
    </g>
    <g id="ytick_6">
     <g id="line2d_13">
      <g>
       <use xlink:href="#m4dc20c3517" x="171.482344" y="31.010152" style="stroke: #000000; stroke-width: 0.8"/>
      </g>
     </g>
     <g id="text_6">
      <!-- 10 -->
      <g transform="translate(155.482344 34.133434) scale(0.09 -0.09)">
       <use xlink:href="#CMUSerif-Roman-31"/>
       <use xlink:href="#CMUSerif-Roman-30" transform="translate(49.999985 0)"/>
      </g>
     </g>
    </g>
   </g>
   <g id="line2d_14">
    <path d="M 176.189957 54.512285 
L 181.14534 54.512285 
L 186.100723 54.512285 
L 191.056106 46.886508 
L 196.011488 36.078364 
L 200.966871 22.391108 
L 205.922254 25.491056 
L 210.877637 41.978724 
L 215.83302 33.849917 
L 220.788402 37.076267 
L 225.743785 42.154901 
L 230.699168 49.735446 
L 235.654551 53.810426 
L 240.609933 54.512285 
L 245.565316 54.512285 
L 250.520699 54.512285 
L 255.476082 54.512285 
L 260.431465 54.512285 
L 265.386847 54.512285 
L 270.34223 54.512285 
" clip-path="url(#pd978c20bef)" style="fill: none; stroke: #1f77b4; stroke-width: 1.5; stroke-linecap: square"/>
   </g>
   <g id="patch_6">
    <path d="M 171.482344 84.226562 
L 171.482344 19.446562 
" style="fill: none; stroke: #000000; stroke-width: 0.8; stroke-linejoin: miter; stroke-linecap: square"/>
   </g>
   <g id="patch_7">
    <path d="M 171.482344 84.226563 
L 275.049844 84.226563 
" style="fill: none; stroke: #000000; stroke-width: 0.8; stroke-linejoin: miter; stroke-linecap: square"/>
   </g>
   <g id="text_7">
    <!-- feature = tx -->
    <g transform="translate(199.029375 13.446562) scale(0.09 -0.09)">
     <defs>
      <path id="CMUSerif-Roman-78" d="M 77 0 
L 77 198 
Q 576 198 896 582 
Q 896 582 1498 1344 
L 864 2170 
Q 640 2458 541 2509 
Q 442 2560 109 2560 
L 109 2758 
Q 371 2739 717 2739 
Q 909 2739 1408 2758 
L 1408 2560 
Q 1184 2547 1184 2400 
Q 1184 2349 1242 2285 
L 1741 1638 
L 2138 2138 
Q 2234 2253 2234 2362 
Q 2234 2541 2048 2560 
L 2048 2758 
Q 2298 2739 2662 2739 
Q 2938 2739 3187 2758 
L 3187 2560 
Q 2701 2547 2426 2227 
Q 2304 2093 1837 1504 
L 2694 397 
Q 2797 262 2912 230 
Q 3027 198 3302 198 
L 3302 0 
Q 3014 19 2688 19 
Q 2573 19 1997 0 
L 1997 198 
Q 2112 205 2169 256 
Q 2227 307 2227 358 
Q 2227 384 2093 570 
L 1606 1210 
Q 1120 634 1056 499 
Q 1030 442 1030 397 
Q 1030 224 1216 198 
L 1216 0 
Q 755 19 608 19 
Q 326 19 77 0 
z
" transform="scale(0.015625)"/>
     </defs>
     <use xlink:href="#CMUSerif-Roman-66"/>
     <use xlink:href="#CMUSerif-Roman-65" transform="translate(30.499985 0)"/>
     <use xlink:href="#CMUSerif-Roman-61" transform="translate(74.899979 0)"/>
     <use xlink:href="#CMUSerif-Roman-74" transform="translate(124.899963 0)"/>
     <use xlink:href="#CMUSerif-Roman-75" transform="translate(163.699951 0)"/>
     <use xlink:href="#CMUSerif-Roman-72" transform="translate(219.199936 0)"/>
     <use xlink:href="#CMUSerif-Roman-65" transform="translate(258.299927 0)"/>
     <use xlink:href="#CMUSerif-Roman-20" transform="translate(302.699921 0)"/>
     <use xlink:href="#CMUSerif-Roman-3d" transform="translate(335.999908 0)"/>
     <use xlink:href="#CMUSerif-Roman-20" transform="translate(413.799896 0)"/>
     <use xlink:href="#CMUSerif-Roman-74" transform="translate(447.099884 0)"/>
     <use xlink:href="#CMUSerif-Roman-78" transform="translate(485.899872 0)"/>
    </g>
   </g>
  </g>
  <g id="axes_3">
   <g id="patch_8">
    <path d="M 42.194844 175.111563 
L 145.762344 175.111563 
L 145.762344 110.331562 
L 42.194844 110.331562 
L 42.194844 175.111563 
z
" style="fill: none"/>
   </g>
   <g id="FillBetweenPolyCollection_3"/>
   <g id="matplotlib.axis_5">
    <g id="xtick_7">
     <g id="line2d_15">
      <g>
       <use xlink:href="#md7655903cc" x="64.556009" y="175.111563" style="stroke: #000000; stroke-width: 0.8"/>
      </g>
     </g>
     <g id="text_8">
      <!-- 0.25 -->
      <g transform="translate(56.555149 188.358125) scale(0.09 -0.09)">
       <defs>
        <path id="CMUSerif-Roman-2e" d="M 640 102 
Q 544 205 544 339 
Q 544 474 640 573 
Q 736 672 883 672 
Q 1024 672 1120 579 
Q 1216 486 1216 339 
Q 1216 192 1113 96 
Q 1011 0 883 0 
Q 736 0 640 102 
z
" transform="scale(0.015625)"/>
        <path id="CMUSerif-Roman-32" d="M 320 0 
Q 320 115 329 150 
Q 339 186 390 237 
L 1619 1606 
Q 2291 2362 2291 3021 
Q 2291 3450 2067 3757 
Q 1843 4064 1434 4064 
Q 1152 4064 915 3891 
Q 678 3718 570 3411 
Q 589 3418 653 3418 
Q 813 3418 902 3318 
Q 992 3219 992 3085 
Q 992 2912 880 2829 
Q 768 2746 659 2746 
Q 614 2746 556 2755 
Q 499 2765 409 2854 
Q 320 2944 320 3104 
Q 320 3552 659 3907 
Q 998 4262 1517 4262 
Q 2106 4262 2490 3913 
Q 2874 3565 2874 3021 
Q 2874 2829 2816 2656 
Q 2758 2483 2681 2348 
Q 2605 2214 2400 2000 
Q 2195 1786 2028 1632 
Q 1862 1478 1491 1152 
L 813 493 
L 1965 493 
Q 2528 493 2573 544 
Q 2637 634 2714 1114 
L 2874 1114 
L 2694 0 
L 320 0 
z
" transform="scale(0.015625)"/>
        <path id="CMUSerif-Roman-35" d="M 320 1030 
Q 320 1222 422 1296 
Q 525 1370 634 1370 
Q 781 1370 867 1277 
Q 954 1184 954 1056 
Q 954 928 867 835 
Q 781 742 634 742 
Q 563 742 525 755 
Q 608 461 867 249 
Q 1126 38 1466 38 
Q 1894 38 2150 454 
Q 2304 723 2304 1331 
Q 2304 1869 2189 2138 
Q 2010 2547 1645 2547 
Q 1126 2547 819 2099 
Q 781 2042 736 2042 
Q 672 2042 659 2077 
Q 646 2112 646 2208 
L 646 4102 
Q 646 4256 710 4256 
Q 736 4256 787 4237 
Q 1190 4058 1638 4058 
Q 2099 4058 2509 4243 
Q 2541 4262 2560 4262 
Q 2624 4262 2624 4192 
Q 2624 4166 2573 4092 
Q 2522 4019 2413 3923 
Q 2304 3827 2163 3737 
Q 2022 3648 1817 3587 
Q 1613 3526 1389 3526 
Q 1120 3526 845 3610 
L 845 2362 
Q 1178 2688 1658 2688 
Q 2170 2688 2522 2275 
Q 2874 1862 2874 1286 
Q 2874 685 2458 272 
Q 2042 -141 1478 -141 
Q 966 -141 643 224 
Q 320 589 320 1030 
z
" transform="scale(0.015625)"/>
       </defs>
       <use xlink:href="#CMUSerif-Roman-30"/>
       <use xlink:href="#CMUSerif-Roman-2e" transform="translate(49.999985 0)"/>
       <use xlink:href="#CMUSerif-Roman-32" transform="translate(77.799973 0)"/>
       <use xlink:href="#CMUSerif-Roman-35" transform="translate(127.799957 0)"/>
      </g>
     </g>
    </g>
    <g id="xtick_8">
     <g id="line2d_16">
      <g>
       <use xlink:href="#md7655903cc" x="93.978594" y="175.111563" style="stroke: #000000; stroke-width: 0.8"/>
      </g>
     </g>
     <g id="text_9">
      <!-- 0.50 -->
      <g transform="translate(85.977734 188.358125) scale(0.09 -0.09)">
       <use xlink:href="#CMUSerif-Roman-30"/>
       <use xlink:href="#CMUSerif-Roman-2e" transform="translate(49.999985 0)"/>
       <use xlink:href="#CMUSerif-Roman-35" transform="translate(77.799973 0)"/>
       <use xlink:href="#CMUSerif-Roman-30" transform="translate(127.799957 0)"/>
      </g>
     </g>
    </g>
    <g id="xtick_9">
     <g id="line2d_17">
      <g>
       <use xlink:href="#md7655903cc" x="123.401179" y="175.111563" style="stroke: #000000; stroke-width: 0.8"/>
      </g>
     </g>
     <g id="text_10">
      <!-- 0.75 -->
      <g transform="translate(115.40032 188.358125) scale(0.09 -0.09)">
       <defs>
        <path id="CMUSerif-Roman-37" d="M 358 3008 
L 570 4326 
L 730 4326 
Q 749 4250 781 4214 
Q 813 4179 995 4150 
Q 1178 4122 1549 4122 
L 3104 4122 
Q 3104 3974 3046 3898 
L 2182 2682 
Q 1907 2298 1786 1587 
Q 1715 1114 1715 538 
L 1715 211 
Q 1715 -141 1420 -141 
Q 1126 -141 1126 211 
Q 1126 1434 1914 2618 
Q 1997 2739 2307 3174 
Q 2618 3610 2630 3629 
L 1306 3629 
Q 723 3629 678 3590 
Q 614 3533 518 3008 
L 358 3008 
z
" transform="scale(0.015625)"/>
       </defs>
       <use xlink:href="#CMUSerif-Roman-30"/>
       <use xlink:href="#CMUSerif-Roman-2e" transform="translate(49.999985 0)"/>
       <use xlink:href="#CMUSerif-Roman-37" transform="translate(77.799973 0)"/>
       <use xlink:href="#CMUSerif-Roman-35" transform="translate(127.799957 0)"/>
      </g>
     </g>
    </g>
    <g id="text_11">
     <!-- quantile -->
     <g transform="translate(78.124531 200.35125) scale(0.09 -0.09)">
      <defs>
       <path id="CMUSerif-Roman-71" d="M 218 1376 
Q 218 1990 640 2409 
Q 1062 2829 1632 2829 
Q 1869 2829 2064 2713 
Q 2259 2598 2345 2483 
Q 2432 2368 2490 2246 
L 2733 2829 
L 2874 2829 
L 2874 -755 
Q 2874 -960 2954 -1001 
Q 3034 -1043 3373 -1043 
L 3373 -1242 
Q 2701 -1222 2650 -1222 
Q 2586 -1222 1933 -1242 
L 1933 -1043 
Q 2272 -1043 2352 -1001 
Q 2432 -960 2432 -755 
L 2432 390 
Q 2080 -70 1581 -70 
Q 1024 -70 621 355 
Q 218 781 218 1376 
z
M 749 1376 
Q 749 826 1001 448 
Q 1254 70 1606 70 
Q 1952 70 2195 333 
Q 2451 614 2451 870 
L 2451 1773 
Q 2451 2074 2236 2371 
Q 2022 2669 1670 2669 
Q 1306 2669 1027 2301 
Q 749 1933 749 1376 
z
" transform="scale(0.015625)"/>
       <path id="CMUSerif-Roman-6c" d="M 211 0 
L 211 198 
Q 550 198 630 240 
Q 710 282 710 486 
L 710 3814 
Q 710 4051 627 4112 
Q 544 4173 211 4173 
L 211 4371 
L 1133 4442 
L 1133 486 
Q 1133 282 1213 240 
Q 1293 198 1632 198 
L 1632 0 
Q 1555 0 1392 6 
Q 1229 13 1110 16 
Q 992 19 922 19 
Q 845 19 211 0 
z
" transform="scale(0.015625)"/>
      </defs>
      <use xlink:href="#CMUSerif-Roman-71"/>
      <use xlink:href="#CMUSerif-Roman-75" transform="translate(52.699997 0)"/>
      <use xlink:href="#CMUSerif-Roman-61" transform="translate(108.199982 0)"/>
      <use xlink:href="#CMUSerif-Roman-6e" transform="translate(158.199966 0)"/>
      <use xlink:href="#CMUSerif-Roman-74" transform="translate(213.699951 0)"/>
      <use xlink:href="#CMUSerif-Roman-69" transform="translate(252.499939 0)"/>
      <use xlink:href="#CMUSerif-Roman-6c" transform="translate(280.199936 0)"/>
      <use xlink:href="#CMUSerif-Roman-65" transform="translate(307.899933 0)"/>
     </g>
    </g>
   </g>
   <g id="matplotlib.axis_6">
    <g id="ytick_7">
     <g id="line2d_18">
      <g>
       <use xlink:href="#m4dc20c3517" x="42.194844" y="168.899417" style="stroke: #000000; stroke-width: 0.8"/>
      </g>
     </g>
     <g id="text_12">
      <!-- −10 -->
      <g transform="translate(19.193125 172.022698) scale(0.09 -0.09)">
       <use xlink:href="#CMUSerif-Roman-2212"/>
       <use xlink:href="#CMUSerif-Roman-31" transform="translate(77.799988 0)"/>
       <use xlink:href="#CMUSerif-Roman-30" transform="translate(127.799973 0)"/>
      </g>
     </g>
    </g>
    <g id="ytick_8">
     <g id="line2d_19">
      <g>
       <use xlink:href="#m4dc20c3517" x="42.194844" y="145.397285" style="stroke: #000000; stroke-width: 0.8"/>
      </g>
     </g>
     <g id="text_13">
      <!-- 0 -->
      <g transform="translate(30.694844 148.520566) scale(0.09 -0.09)">
       <use xlink:href="#CMUSerif-Roman-30"/>
      </g>
     </g>
    </g>
    <g id="ytick_9">
     <g id="line2d_20">
      <g>
       <use xlink:href="#m4dc20c3517" x="42.194844" y="121.895152" style="stroke: #000000; stroke-width: 0.8"/>
      </g>
     </g>
     <g id="text_14">
      <!-- 10 -->
      <g transform="translate(26.194844 125.018434) scale(0.09 -0.09)">
       <use xlink:href="#CMUSerif-Roman-31"/>
       <use xlink:href="#CMUSerif-Roman-30" transform="translate(49.999985 0)"/>
      </g>
     </g>
    </g>
    <g id="text_15">
     <!-- coefficient -->
     <g transform="translate(13.446562 162.446328) rotate(-90) scale(0.09 -0.09)">
      <use xlink:href="#CMUSerif-Roman-63"/>
      <use xlink:href="#CMUSerif-Roman-6f" transform="translate(44.399994 0)"/>
      <use xlink:href="#CMUSerif-Roman-65" transform="translate(94.399979 0)"/>
      <use xlink:href="#CMUSerif-Roman-66" transform="translate(138.799973 0)"/>
      <use xlink:href="#CMUSerif-Roman-66" transform="translate(169.299957 0)"/>
      <use xlink:href="#CMUSerif-Roman-69" transform="translate(199.799942 0)"/>
      <use xlink:href="#CMUSerif-Roman-63" transform="translate(227.499939 0)"/>
      <use xlink:href="#CMUSerif-Roman-69" transform="translate(271.899933 0)"/>
      <use xlink:href="#CMUSerif-Roman-65" transform="translate(299.59993 0)"/>
      <use xlink:href="#CMUSerif-Roman-6e" transform="translate(343.999924 0)"/>
      <use xlink:href="#CMUSerif-Roman-74" transform="translate(399.499908 0)"/>
     </g>
    </g>
   </g>
   <g id="line2d_21">
    <path d="M 46.902457 145.397285 
L 51.85784 145.397285 
L 56.813223 145.397285 
L 61.768606 145.397285 
L 66.723988 133.96624 
L 71.679371 133.848022 
L 76.634754 127.666148 
L 81.590137 130.7516 
L 86.54552 136.876757 
L 91.500902 140.181627 
L 96.456285 136.42224 
L 101.411668 139.462067 
L 106.367051 145.020689 
L 111.322433 145.397285 
L 116.277816 145.397285 
L 121.233199 145.397285 
L 126.188582 145.397285 
L 131.143965 145.397285 
L 136.099347 145.397285 
L 141.05473 145.397285 
" clip-path="url(#pfa2a835252)" style="fill: none; stroke: #1f77b4; stroke-width: 1.5; stroke-linecap: square"/>
   </g>
   <g id="patch_9">
    <path d="M 42.194844 175.111562 
L 42.194844 110.331562 
" style="fill: none; stroke: #000000; stroke-width: 0.8; stroke-linejoin: miter; stroke-linecap: square"/>
   </g>
   <g id="patch_10">
    <path d="M 42.194844 175.111563 
L 145.762344 175.111563 
" style="fill: none; stroke: #000000; stroke-width: 0.8; stroke-linejoin: miter; stroke-linecap: square"/>
   </g>
   <g id="text_16">
    <!-- feature = ivdrug -->
    <g transform="translate(61.236875 104.331562) scale(0.09 -0.09)">
     <defs>
      <path id="CMUSerif-Roman-76" d="M 122 2560 
L 122 2758 
Q 410 2739 742 2739 
Q 864 2739 1440 2758 
L 1440 2560 
Q 1075 2560 1075 2394 
Q 1075 2368 1114 2285 
L 1830 499 
L 2483 2131 
Q 2522 2240 2522 2285 
Q 2522 2394 2448 2474 
Q 2374 2554 2214 2560 
L 2214 2758 
Q 2541 2739 2771 2739 
Q 3034 2739 3251 2758 
L 3251 2560 
Q 3059 2560 2924 2473 
Q 2790 2387 2748 2313 
Q 2707 2240 2662 2131 
L 1824 51 
Q 1773 -70 1690 -70 
Q 1632 -70 1609 -48 
Q 1587 -26 1555 51 
L 634 2323 
Q 570 2483 490 2521 
Q 410 2560 122 2560 
z
" transform="scale(0.015625)"/>
      <path id="CMUSerif-Roman-64" d="M 218 1376 
Q 218 1984 643 2406 
Q 1069 2829 1645 2829 
Q 2131 2829 2451 2432 
L 2451 3814 
Q 2451 4051 2368 4112 
Q 2285 4173 1952 4173 
L 1952 4371 
L 2874 4442 
L 2874 557 
Q 2874 320 2957 259 
Q 3040 198 3373 198 
L 3373 0 
L 2432 -70 
L 2432 352 
Q 2099 -70 1574 -70 
Q 1024 -70 621 352 
Q 218 774 218 1376 
z
M 749 1370 
Q 749 774 934 480 
Q 1190 70 1606 70 
Q 2080 70 2362 518 
Q 2432 627 2432 755 
L 2432 2067 
Q 2432 2195 2362 2304 
Q 2099 2688 1670 2688 
Q 1222 2688 947 2278 
Q 749 1971 749 1370 
z
" transform="scale(0.015625)"/>
      <path id="CMUSerif-Roman-67" d="M 179 -506 
Q 179 -301 336 -121 
Q 493 58 768 134 
Q 486 314 486 704 
Q 486 1005 685 1235 
Q 384 1485 384 1894 
Q 384 2272 685 2550 
Q 986 2829 1421 2829 
Q 1805 2829 2099 2598 
Q 2406 2899 2778 2899 
Q 2944 2899 3024 2796 
Q 3104 2694 3104 2586 
Q 3104 2490 3043 2442 
Q 2982 2394 2918 2394 
Q 2842 2394 2787 2445 
Q 2733 2496 2733 2579 
Q 2733 2714 2835 2752 
Q 2816 2758 2771 2758 
Q 2458 2758 2195 2509 
Q 2458 2266 2458 1888 
Q 2458 1510 2157 1232 
Q 1856 954 1421 954 
Q 1062 954 787 1152 
Q 678 1024 678 851 
Q 678 691 774 566 
Q 870 442 1018 422 
Q 1062 416 1498 416 
Q 1754 416 1894 409 
Q 2035 403 2236 361 
Q 2438 320 2598 237 
Q 3014 6 3014 -493 
Q 3014 -858 2595 -1088 
Q 2176 -1318 1594 -1318 
Q 1005 -1318 592 -1084 
Q 179 -851 179 -506 
z
M 512 -506 
Q 512 -768 822 -969 
Q 1133 -1171 1600 -1171 
Q 2061 -1171 2371 -972 
Q 2682 -774 2682 -506 
Q 2682 -314 2573 -192 
Q 2464 -70 2240 -22 
Q 2016 26 1859 35 
Q 1702 45 1414 45 
L 1037 45 
Q 819 32 665 -128 
Q 512 -288 512 -506 
z
M 864 1888 
Q 864 1101 1421 1101 
Q 1702 1101 1875 1357 
Q 1978 1530 1978 1894 
Q 1978 2682 1421 2682 
Q 1139 2682 966 2426 
Q 864 2253 864 1888 
z
" transform="scale(0.015625)"/>
     </defs>
     <use xlink:href="#CMUSerif-Roman-66"/>
     <use xlink:href="#CMUSerif-Roman-65" transform="translate(30.499985 0)"/>
     <use xlink:href="#CMUSerif-Roman-61" transform="translate(74.899979 0)"/>
     <use xlink:href="#CMUSerif-Roman-74" transform="translate(124.899963 0)"/>
     <use xlink:href="#CMUSerif-Roman-75" transform="translate(163.699951 0)"/>
     <use xlink:href="#CMUSerif-Roman-72" transform="translate(219.199936 0)"/>
     <use xlink:href="#CMUSerif-Roman-65" transform="translate(258.299927 0)"/>
     <use xlink:href="#CMUSerif-Roman-20" transform="translate(302.699921 0)"/>
     <use xlink:href="#CMUSerif-Roman-3d" transform="translate(335.999908 0)"/>
     <use xlink:href="#CMUSerif-Roman-20" transform="translate(413.799896 0)"/>
     <use xlink:href="#CMUSerif-Roman-69" transform="translate(447.099884 0)"/>
     <use xlink:href="#CMUSerif-Roman-76" transform="translate(474.799881 0)"/>
     <use xlink:href="#CMUSerif-Roman-64" transform="translate(527.499878 0)"/>
     <use xlink:href="#CMUSerif-Roman-72" transform="translate(582.999863 0)"/>
     <use xlink:href="#CMUSerif-Roman-75" transform="translate(622.099854 0)"/>
     <use xlink:href="#CMUSerif-Roman-67" transform="translate(677.599838 0)"/>
    </g>
   </g>
  </g>
  <g id="axes_4">
   <g id="patch_11">
    <path d="M 171.482344 175.111563 
L 275.049844 175.111563 
L 275.049844 110.331562 
L 171.482344 110.331562 
L 171.482344 175.111563 
z
" style="fill: none"/>
   </g>
   <g id="FillBetweenPolyCollection_4"/>
   <g id="matplotlib.axis_7">
    <g id="xtick_10">
     <g id="line2d_22">
      <g>
       <use xlink:href="#md7655903cc" x="193.843509" y="175.111563" style="stroke: #000000; stroke-width: 0.8"/>
      </g>
     </g>
     <g id="text_17">
      <!-- 0.25 -->
      <g transform="translate(185.842649 188.358125) scale(0.09 -0.09)">
       <use xlink:href="#CMUSerif-Roman-30"/>
       <use xlink:href="#CMUSerif-Roman-2e" transform="translate(49.999985 0)"/>
       <use xlink:href="#CMUSerif-Roman-32" transform="translate(77.799973 0)"/>
       <use xlink:href="#CMUSerif-Roman-35" transform="translate(127.799957 0)"/>
      </g>
     </g>
    </g>
    <g id="xtick_11">
     <g id="line2d_23">
      <g>
       <use xlink:href="#md7655903cc" x="223.266094" y="175.111563" style="stroke: #000000; stroke-width: 0.8"/>
      </g>
     </g>
     <g id="text_18">
      <!-- 0.50 -->
      <g transform="translate(215.265234 188.358125) scale(0.09 -0.09)">
       <use xlink:href="#CMUSerif-Roman-30"/>
       <use xlink:href="#CMUSerif-Roman-2e" transform="translate(49.999985 0)"/>
       <use xlink:href="#CMUSerif-Roman-35" transform="translate(77.799973 0)"/>
       <use xlink:href="#CMUSerif-Roman-30" transform="translate(127.799957 0)"/>
      </g>
     </g>
    </g>
    <g id="xtick_12">
     <g id="line2d_24">
      <g>
       <use xlink:href="#md7655903cc" x="252.688679" y="175.111563" style="stroke: #000000; stroke-width: 0.8"/>
      </g>
     </g>
     <g id="text_19">
      <!-- 0.75 -->
      <g transform="translate(244.68782 188.358125) scale(0.09 -0.09)">
       <use xlink:href="#CMUSerif-Roman-30"/>
       <use xlink:href="#CMUSerif-Roman-2e" transform="translate(49.999985 0)"/>
       <use xlink:href="#CMUSerif-Roman-37" transform="translate(77.799973 0)"/>
       <use xlink:href="#CMUSerif-Roman-35" transform="translate(127.799957 0)"/>
      </g>
     </g>
    </g>
    <g id="text_20">
     <!-- quantile -->
     <g transform="translate(207.412031 200.35125) scale(0.09 -0.09)">
      <use xlink:href="#CMUSerif-Roman-71"/>
      <use xlink:href="#CMUSerif-Roman-75" transform="translate(52.699997 0)"/>
      <use xlink:href="#CMUSerif-Roman-61" transform="translate(108.199982 0)"/>
      <use xlink:href="#CMUSerif-Roman-6e" transform="translate(158.199966 0)"/>
      <use xlink:href="#CMUSerif-Roman-74" transform="translate(213.699951 0)"/>
      <use xlink:href="#CMUSerif-Roman-69" transform="translate(252.499939 0)"/>
      <use xlink:href="#CMUSerif-Roman-6c" transform="translate(280.199936 0)"/>
      <use xlink:href="#CMUSerif-Roman-65" transform="translate(307.899933 0)"/>
     </g>
    </g>
   </g>
   <g id="matplotlib.axis_8">
    <g id="ytick_10">
     <g id="line2d_25">
      <g>
       <use xlink:href="#m4dc20c3517" x="171.482344" y="168.899417" style="stroke: #000000; stroke-width: 0.8"/>
      </g>
     </g>
    </g>
    <g id="ytick_11">
     <g id="line2d_26">
      <g>
       <use xlink:href="#m4dc20c3517" x="171.482344" y="145.397285" style="stroke: #000000; stroke-width: 0.8"/>
      </g>
     </g>
    </g>
    <g id="ytick_12">
     <g id="line2d_27">
      <g>
       <use xlink:href="#m4dc20c3517" x="171.482344" y="121.895152" style="stroke: #000000; stroke-width: 0.8"/>
      </g>
     </g>
     <g id="text_21">
      <!-- 10 -->
      <g transform="translate(155.482344 125.018434) scale(0.09 -0.09)">
       <use xlink:href="#CMUSerif-Roman-31"/>
       <use xlink:href="#CMUSerif-Roman-30" transform="translate(49.999985 0)"/>
      </g>
     </g>
    </g>
   </g>
   <g id="line2d_28">
    <path d="M 176.189957 143.532955 
L 181.14534 143.089031 
L 186.100723 142.999027 
L 191.056106 141.746436 
L 196.011488 141.845364 
L 200.966871 142.22772 
L 205.922254 142.968983 
L 210.877637 143.578215 
L 215.83302 143.879208 
L 220.788402 143.693613 
L 225.743785 143.860754 
L 230.699168 143.509248 
L 235.654551 143.704757 
L 240.609933 143.94443 
L 245.565316 144.081957 
L 250.520699 144.074716 
L 255.476082 143.973932 
L 260.431465 144.059265 
L 265.386847 144.329167 
L 270.34223 144.448517 
" clip-path="url(#paffad622f8)" style="fill: none; stroke: #1f77b4; stroke-width: 1.5; stroke-linecap: square"/>
   </g>
   <g id="patch_12">
    <path d="M 171.482344 175.111562 
L 171.482344 110.331562 
" style="fill: none; stroke: #000000; stroke-width: 0.8; stroke-linejoin: miter; stroke-linecap: square"/>
   </g>
   <g id="patch_13">
    <path d="M 171.482344 175.111563 
L 275.049844 175.111563 
" style="fill: none; stroke: #000000; stroke-width: 0.8; stroke-linejoin: miter; stroke-linecap: square"/>
   </g>
   <g id="text_22">
    <!-- feature = age -->
    <g transform="translate(196.648594 104.331562) scale(0.09 -0.09)">
     <use xlink:href="#CMUSerif-Roman-66"/>
     <use xlink:href="#CMUSerif-Roman-65" transform="translate(30.499985 0)"/>
     <use xlink:href="#CMUSerif-Roman-61" transform="translate(74.899979 0)"/>
     <use xlink:href="#CMUSerif-Roman-74" transform="translate(124.899963 0)"/>
     <use xlink:href="#CMUSerif-Roman-75" transform="translate(163.699951 0)"/>
     <use xlink:href="#CMUSerif-Roman-72" transform="translate(219.199936 0)"/>
     <use xlink:href="#CMUSerif-Roman-65" transform="translate(258.299927 0)"/>
     <use xlink:href="#CMUSerif-Roman-20" transform="translate(302.699921 0)"/>
     <use xlink:href="#CMUSerif-Roman-3d" transform="translate(335.999908 0)"/>
     <use xlink:href="#CMUSerif-Roman-20" transform="translate(413.799896 0)"/>
     <use xlink:href="#CMUSerif-Roman-61" transform="translate(447.099884 0)"/>
     <use xlink:href="#CMUSerif-Roman-67" transform="translate(497.099869 0)"/>
     <use xlink:href="#CMUSerif-Roman-65" transform="translate(547.099854 0)"/>
    </g>
   </g>
  </g>
 </g>
 <defs>
  <clipPath id="pe1aa6472c2">
   <rect x="42.194844" y="19.446562" width="103.5675" height="64.78"/>
  </clipPath>
  <clipPath id="pd978c20bef">
   <rect x="171.482344" y="19.446562" width="103.5675" height="64.78"/>
  </clipPath>
  <clipPath id="pfa2a835252">
   <rect x="42.194844" y="110.331562" width="103.5675" height="64.78"/>
  </clipPath>
  <clipPath id="paffad622f8">
   <rect x="171.482344" y="110.331562" width="103.5675" height="64.78"/>
  </clipPath>
 </defs>
</svg>
